<svg width="41" height="40" viewBox="0 0 41 40" fill="none" xmlns="http://www.w3.org/2000/svg">
<circle cx="20.5" cy="20" r="20" fill="#45A6FF" fill-opacity="0.2"/>
<path d="M20.019 19.986C20.019 21.6194 19.7063 22.8747 19.081 23.752C18.465 24.62 17.611 25.054 16.519 25.054C15.427 25.054 14.5683 24.62 13.943 23.752C13.327 22.8747 13.019 21.6194 13.019 19.986C13.019 19.174 13.0983 18.4554 13.257 17.83C13.425 17.2047 13.663 16.6774 13.971 16.248C14.279 15.8187 14.6476 15.492 15.077 15.268C15.5063 15.044 15.987 14.932 16.519 14.932C17.611 14.932 18.465 15.3707 19.081 16.248C19.7063 17.116 20.019 18.362 20.019 19.986ZM17.891 19.986C17.891 19.5007 17.8676 19.062 17.821 18.67C17.7743 18.2687 17.6996 17.9234 17.597 17.634C17.4943 17.3447 17.3543 17.1207 17.177 16.962C16.9996 16.8034 16.7803 16.724 16.519 16.724C16.2576 16.724 16.0383 16.8034 15.861 16.962C15.693 17.1207 15.553 17.3447 15.441 17.634C15.3383 17.9234 15.2636 18.2687 15.217 18.67C15.1703 19.062 15.147 19.5007 15.147 19.986C15.147 20.4714 15.1703 20.9147 15.217 21.316C15.2636 21.7174 15.3383 22.0627 15.441 22.352C15.553 22.6414 15.693 22.8654 15.861 23.024C16.0383 23.1827 16.2576 23.262 16.519 23.262C16.7803 23.262 16.9996 23.1827 17.177 23.024C17.3543 22.8654 17.4943 22.6414 17.597 22.352C17.6996 22.0627 17.7743 21.7174 17.821 21.316C17.8676 20.9147 17.891 20.4714 17.891 19.986ZM27.444 17.704C27.444 18.0587 27.374 18.3994 27.234 18.726C27.094 19.0527 26.912 19.37 26.688 19.678C26.464 19.9767 26.212 20.266 25.932 20.546C25.652 20.826 25.3767 21.092 25.106 21.344C24.966 21.4747 24.812 21.624 24.644 21.792C24.4853 21.9507 24.3313 22.114 24.182 22.282C24.0327 22.45 23.8973 22.6087 23.776 22.758C23.664 22.898 23.594 23.0147 23.566 23.108H27.738V24.858H21.27C21.2513 24.7554 21.242 24.6247 21.242 24.466C21.242 24.3074 21.242 24.1954 21.242 24.13C21.242 23.682 21.312 23.2714 21.452 22.898C21.6013 22.5247 21.7927 22.1794 22.026 21.862C22.2593 21.5354 22.5207 21.232 22.81 20.952C23.1087 20.672 23.4027 20.392 23.692 20.112C23.916 19.8974 24.126 19.6967 24.322 19.51C24.518 19.314 24.6907 19.1274 24.84 18.95C24.9893 18.7634 25.106 18.5814 25.19 18.404C25.274 18.2174 25.316 18.0307 25.316 17.844C25.316 17.4334 25.1993 17.144 24.966 16.976C24.7327 16.808 24.4433 16.724 24.098 16.724C23.846 16.724 23.608 16.766 23.384 16.85C23.1693 16.9247 22.9687 17.018 22.782 17.13C22.6047 17.2327 22.4507 17.34 22.32 17.452C22.1893 17.5547 22.0913 17.6387 22.026 17.704L20.99 16.248C21.4007 15.8654 21.8767 15.5527 22.418 15.31C22.9687 15.058 23.5567 14.932 24.182 14.932C24.7513 14.932 25.2413 14.9974 25.652 15.128C26.0627 15.2587 26.3987 15.4454 26.66 15.688C26.9307 15.9214 27.1267 16.2107 27.248 16.556C27.3787 16.892 27.444 17.2747 27.444 17.704Z" fill="#45A6FF"/>
</svg>
