<svg width="41" height="40" viewBox="0 0 41 40" fill="none" xmlns="http://www.w3.org/2000/svg">
<circle cx="20.5" cy="20" r="20" fill="#45A6FF" fill-opacity="0.2"/>
<path d="M20.019 19.986C20.019 21.6194 19.7063 22.8747 19.081 23.752C18.465 24.62 17.611 25.054 16.519 25.054C15.427 25.054 14.5683 24.62 13.943 23.752C13.327 22.8747 13.019 21.6194 13.019 19.986C13.019 19.174 13.0983 18.4554 13.257 17.83C13.425 17.2047 13.663 16.6774 13.971 16.248C14.279 15.8187 14.6476 15.492 15.077 15.268C15.5063 15.044 15.987 14.932 16.519 14.932C17.611 14.932 18.465 15.3707 19.081 16.248C19.7063 17.116 20.019 18.362 20.019 19.986ZM17.891 19.986C17.891 19.5007 17.8676 19.062 17.821 18.67C17.7743 18.2687 17.6996 17.9234 17.597 17.634C17.4943 17.3447 17.3543 17.1207 17.177 16.962C16.9996 16.8034 16.7803 16.724 16.519 16.724C16.2576 16.724 16.0383 16.8034 15.861 16.962C15.693 17.1207 15.553 17.3447 15.441 17.634C15.3383 17.9234 15.2636 18.2687 15.217 18.67C15.1703 19.062 15.147 19.5007 15.147 19.986C15.147 20.4714 15.1703 20.9147 15.217 21.316C15.2636 21.7174 15.3383 22.0627 15.441 22.352C15.553 22.6414 15.693 22.8654 15.861 23.024C16.0383 23.1827 16.2576 23.262 16.519 23.262C16.7803 23.262 16.9996 23.1827 17.177 23.024C17.3543 22.8654 17.4943 22.6414 17.597 22.352C17.6996 22.0627 17.7743 21.7174 17.821 21.316C17.8676 20.9147 17.891 20.4714 17.891 19.986ZM23.692 25.068C23.44 25.068 23.174 25.0494 22.894 25.012C22.614 24.984 22.3433 24.942 22.082 24.886C21.8207 24.83 21.5827 24.7694 21.368 24.704C21.1533 24.6387 20.9853 24.578 20.864 24.522L21.27 22.786C21.5127 22.8887 21.8207 23.0007 22.194 23.122C22.5767 23.234 23.048 23.29 23.608 23.29C24.252 23.29 24.7233 23.1687 25.022 22.926C25.3207 22.6834 25.47 22.3567 25.47 21.946C25.47 21.694 25.414 21.484 25.302 21.316C25.1993 21.1387 25.0547 20.9987 24.868 20.896C24.6813 20.784 24.4573 20.7094 24.196 20.672C23.944 20.6254 23.6733 20.602 23.384 20.602H22.572V18.922H23.496C23.7013 18.922 23.8973 18.9034 24.084 18.866C24.28 18.8287 24.4527 18.768 24.602 18.684C24.7513 18.5907 24.868 18.4694 24.952 18.32C25.0453 18.1614 25.092 17.9654 25.092 17.732C25.092 17.5547 25.0547 17.4007 24.98 17.27C24.9053 17.1394 24.8073 17.032 24.686 16.948C24.574 16.864 24.4387 16.8034 24.28 16.766C24.1307 16.7194 23.9767 16.696 23.818 16.696C23.4167 16.696 23.0433 16.7567 22.698 16.878C22.362 16.9994 22.054 17.1487 21.774 17.326L21.032 15.8C21.1813 15.7067 21.354 15.6087 21.55 15.506C21.7553 15.4034 21.9793 15.31 22.222 15.226C22.4647 15.142 22.7213 15.072 22.992 15.016C23.272 14.96 23.566 14.932 23.874 14.932C24.4433 14.932 24.9333 15.002 25.344 15.142C25.764 15.2727 26.1093 15.464 26.38 15.716C26.6507 15.9587 26.8513 16.248 26.982 16.584C27.1127 16.9107 27.178 17.27 27.178 17.662C27.178 18.0447 27.0707 18.418 26.856 18.782C26.6413 19.1367 26.352 19.4074 25.988 19.594C26.492 19.7994 26.8793 20.1074 27.15 20.518C27.43 20.9194 27.57 21.4047 27.57 21.974C27.57 22.422 27.4953 22.8374 27.346 23.22C27.1967 23.5934 26.9633 23.92 26.646 24.2C26.3287 24.4707 25.9227 24.6854 25.428 24.844C24.9427 24.9934 24.364 25.068 23.692 25.068Z" fill="#45A6FF"/>
</svg>
