<svg width="41" height="40" viewBox="0 0 41 40" fill="none" xmlns="http://www.w3.org/2000/svg">
<circle cx="20.5" cy="20" r="20" fill="#45A6FF" fill-opacity="0.2"/>
<path d="M20.019 19.986C20.019 21.6194 19.7063 22.8747 19.081 23.752C18.465 24.62 17.611 25.054 16.519 25.054C15.427 25.054 14.5683 24.62 13.943 23.752C13.327 22.8747 13.019 21.6194 13.019 19.986C13.019 19.174 13.0983 18.4554 13.257 17.83C13.425 17.2047 13.663 16.6774 13.971 16.248C14.279 15.8187 14.6476 15.492 15.077 15.268C15.5063 15.044 15.987 14.932 16.519 14.932C17.611 14.932 18.465 15.3707 19.081 16.248C19.7063 17.116 20.019 18.362 20.019 19.986ZM17.891 19.986C17.891 19.5007 17.8676 19.062 17.821 18.67C17.7743 18.2687 17.6996 17.9234 17.597 17.634C17.4943 17.3447 17.3543 17.1207 17.177 16.962C16.9996 16.8034 16.7803 16.724 16.519 16.724C16.2576 16.724 16.0383 16.8034 15.861 16.962C15.693 17.1207 15.553 17.3447 15.441 17.634C15.3383 17.9234 15.2636 18.2687 15.217 18.67C15.1703 19.062 15.147 19.5007 15.147 19.986C15.147 20.4714 15.1703 20.9147 15.217 21.316C15.2636 21.7174 15.3383 22.0627 15.441 22.352C15.553 22.6414 15.693 22.8654 15.861 23.024C16.0383 23.1827 16.2576 23.262 16.519 23.262C16.7803 23.262 16.9996 23.1827 17.177 23.024C17.3543 22.8654 17.4943 22.6414 17.597 22.352C17.6996 22.0627 17.7743 21.7174 17.821 21.316C17.8676 20.9147 17.891 20.4714 17.891 19.986ZM24.966 17.704C24.602 18.18 24.2147 18.698 23.804 19.258C23.3933 19.818 23.048 20.392 22.768 20.98H24.966V17.704ZM27.01 15.156V20.98H28.046V22.688H27.01V24.858H24.966V22.688H20.78V21.162C20.9853 20.7514 21.242 20.2894 21.55 19.776C21.858 19.2534 22.1987 18.7214 22.572 18.18C22.9547 17.6294 23.356 17.0927 23.776 16.57C24.196 16.0474 24.616 15.576 25.036 15.156H27.01Z" fill="#45A6FF"/>
</svg>
