<svg width="25" height="24" viewBox="0 0 25 24" fill="none" xmlns="http://www.w3.org/2000/svg">
<path fill-rule="evenodd" clip-rule="evenodd" d="M17.7794 5.05277C18.8153 4.94954 19.6914 5.81059 19.6062 6.84819L19.0926 13.0974C18.9234 15.1566 17.5053 16.8998 15.5237 17.4846L12.6507 18.3324L10.9313 20.0818C9.96326 21.0668 8.38 21.0805 7.39502 20.1125L4.72857 17.4918C3.74359 16.5238 3.72987 14.9405 4.69793 13.9555L6.41745 12.2059L7.21533 9.31892C7.7657 7.32745 9.48402 5.87942 11.54 5.67454L17.7794 5.05277ZM7.17347 13.815L11.0289 17.6042L9.74234 18.9133C9.41965 19.2416 8.8919 19.2462 8.56357 18.9235L5.89712 16.3028C5.56879 15.9801 5.56422 15.4524 5.88691 15.1241L7.17347 13.815ZM16.6449 6.84118L13.4048 10.1378C13.2668 10.1022 13.1219 10.0838 12.9725 10.0851C12.0519 10.0931 11.312 10.8459 11.32 11.7666C11.3279 12.6873 12.0808 13.4271 13.0014 13.4192C13.9221 13.4112 14.662 12.6584 14.654 11.7377C14.6527 11.5884 14.6318 11.4438 14.5938 11.3064L17.8384 8.0051L17.4311 12.9609C17.3183 14.3337 16.3729 15.4958 15.0518 15.8856L12.4422 16.6558L8.09738 12.3856L8.82218 9.763C9.1891 8.43536 10.3346 7.47 11.7053 7.33342L16.6449 6.84118Z" fill="url(#paint0_linear_3250_858)"/>
<path d="M20.1324 17.2553C20.2154 16.9131 20.7021 16.9131 20.785 17.2553L21.0134 18.1968C21.043 18.319 21.1384 18.4144 21.2605 18.444L22.2021 18.6723C22.5443 18.7553 22.5443 19.242 22.2021 19.325L21.2605 19.5533C21.1384 19.5829 21.043 19.6783 21.0134 19.8005L20.785 20.742C20.7021 21.0842 20.2154 21.0842 20.1324 20.742L19.9041 19.8005C19.8745 19.6783 19.7791 19.5829 19.6569 19.5533L18.7154 19.325C18.3732 19.242 18.3732 18.7553 18.7154 18.6723L19.6569 18.444C19.7791 18.4144 19.8745 18.319 19.9041 18.1968L20.1324 17.2553Z" fill="url(#paint1_linear_3250_858)"/>
<path fill-rule="evenodd" clip-rule="evenodd" d="M20.4587 17.6194L20.2957 18.2918C20.2305 18.5606 20.0207 18.7704 19.7519 18.8356L19.0795 18.9987L19.7519 19.1617C20.0207 19.2269 20.2305 19.4367 20.2957 19.7055L20.4587 20.3779L20.6218 19.7055C20.687 19.4367 20.8968 19.2269 21.1656 19.1617L21.838 18.9987L21.1656 18.8356C20.8968 18.7704 20.687 18.5606 20.6218 18.2918L20.4587 17.6194ZM20.785 17.2553C20.7021 16.9131 20.2154 16.9131 20.1324 17.2553L19.9041 18.1968C19.8745 18.319 19.7791 18.4144 19.6569 18.444L18.7154 18.6723C18.3732 18.7553 18.3732 19.242 18.7154 19.325L19.6569 19.5533C19.7791 19.5829 19.8745 19.6783 19.9041 19.8005L20.1324 20.742C20.2154 21.0842 20.7021 21.0842 20.785 20.742L21.0134 19.8005C21.043 19.6783 21.1384 19.5829 21.2605 19.5533L22.2021 19.325C22.5443 19.242 22.5443 18.7553 22.2021 18.6723L21.2605 18.444C21.1384 18.4144 21.043 18.319 21.0134 18.1968L20.785 17.2553Z" fill="url(#paint2_linear_3250_858)"/>
<path d="M16.4587 20.9987C16.4587 21.5509 16.011 21.9987 15.4587 21.9987C14.9065 21.9987 14.4587 21.5509 14.4587 20.9987C14.4587 20.4464 14.9065 19.9987 15.4587 19.9987C16.011 19.9987 16.4587 20.4464 16.4587 20.9987Z" fill="url(#paint3_linear_3250_858)"/>
<path d="M22.4587 2.99866C22.4587 3.55094 22.011 3.99866 21.4587 3.99866C20.9065 3.99866 20.4587 3.55094 20.4587 2.99866C20.4587 2.44637 20.9065 1.99866 21.4587 1.99866C22.011 1.99866 22.4587 2.44637 22.4587 2.99866Z" fill="url(#paint4_linear_3250_858)"/>
<path d="M9.45874 2.99866C9.45874 3.55094 9.01102 3.99866 8.45874 3.99866C7.90646 3.99866 7.45874 3.55094 7.45874 2.99866C7.45874 2.44637 7.90646 1.99866 8.45874 1.99866C9.01102 1.99866 9.45874 2.44637 9.45874 2.99866Z" fill="url(#paint5_linear_3250_858)"/>
<path d="M4.13243 5.2553C4.21541 4.91311 4.70207 4.91311 4.78505 5.2553L5.01336 6.19685C5.04299 6.31902 5.13838 6.41441 5.26055 6.44403L6.2021 6.67235C6.54429 6.75532 6.54429 7.24199 6.2021 7.32497L5.26055 7.55328C5.13838 7.5829 5.04299 7.67829 5.01336 7.80046L4.78505 8.74202C4.70207 9.0842 4.21541 9.0842 4.13243 8.74202L3.90412 7.80046C3.87449 7.67829 3.7791 7.5829 3.65693 7.55328L2.71538 7.32497C2.37319 7.24199 2.37319 6.75532 2.71538 6.67235L3.65693 6.44403C3.7791 6.41441 3.87449 6.31902 3.90412 6.19685L4.13243 5.2553Z" fill="url(#paint6_linear_3250_858)"/>
<path fill-rule="evenodd" clip-rule="evenodd" d="M4.45874 5.61939L4.29569 6.2918C4.23052 6.56058 4.02066 6.77043 3.75188 6.83561L3.07947 6.99866L3.75188 7.16171C4.02066 7.22688 4.23052 7.43674 4.29569 7.70551L4.45874 8.37793L4.62179 7.70551C4.68697 7.43674 4.89682 7.22688 5.1656 7.16171L5.83801 6.99866L5.1656 6.83561C4.89682 6.77043 4.68697 6.56058 4.62179 6.2918L4.45874 5.61939ZM4.78505 5.2553C4.70207 4.91311 4.21541 4.91311 4.13243 5.2553L3.90412 6.19685C3.87449 6.31902 3.7791 6.41441 3.65693 6.44403L2.71538 6.67235C2.37319 6.75532 2.37319 7.24199 2.71538 7.32497L3.65693 7.55328C3.7791 7.5829 3.87449 7.67829 3.90412 7.80046L4.13243 8.74202C4.21541 9.0842 4.70207 9.0842 4.78505 8.74202L5.01336 7.80046C5.04299 7.67829 5.13838 7.5829 5.26055 7.55328L6.2021 7.32497C6.54429 7.24199 6.54429 6.75532 6.2021 6.67235L5.26055 6.44403C5.13838 6.41441 5.04299 6.31902 5.01336 6.19685L4.78505 5.2553Z" fill="url(#paint7_linear_3250_858)"/>
<defs>
<linearGradient id="paint0_linear_3250_858" x1="19.925" y1="1.99866" x2="-0.895013" y2="19.0359" gradientUnits="userSpaceOnUse">
<stop stop-color="#45A6FF"/>
<stop offset="1" stop-color="#1353BC"/>
</linearGradient>
<linearGradient id="paint1_linear_3250_858" x1="19.925" y1="1.99866" x2="-0.895013" y2="19.0359" gradientUnits="userSpaceOnUse">
<stop stop-color="#45A6FF"/>
<stop offset="1" stop-color="#1353BC"/>
</linearGradient>
<linearGradient id="paint2_linear_3250_858" x1="19.925" y1="1.99866" x2="-0.895013" y2="19.0359" gradientUnits="userSpaceOnUse">
<stop stop-color="#45A6FF"/>
<stop offset="1" stop-color="#1353BC"/>
</linearGradient>
<linearGradient id="paint3_linear_3250_858" x1="19.925" y1="1.99866" x2="-0.895013" y2="19.0359" gradientUnits="userSpaceOnUse">
<stop stop-color="#45A6FF"/>
<stop offset="1" stop-color="#1353BC"/>
</linearGradient>
<linearGradient id="paint4_linear_3250_858" x1="19.925" y1="1.99866" x2="-0.895013" y2="19.0359" gradientUnits="userSpaceOnUse">
<stop stop-color="#45A6FF"/>
<stop offset="1" stop-color="#1353BC"/>
</linearGradient>
<linearGradient id="paint5_linear_3250_858" x1="19.925" y1="1.99866" x2="-0.895013" y2="19.0359" gradientUnits="userSpaceOnUse">
<stop stop-color="#45A6FF"/>
<stop offset="1" stop-color="#1353BC"/>
</linearGradient>
<linearGradient id="paint6_linear_3250_858" x1="19.925" y1="1.99866" x2="-0.895013" y2="19.0359" gradientUnits="userSpaceOnUse">
<stop stop-color="#45A6FF"/>
<stop offset="1" stop-color="#1353BC"/>
</linearGradient>
<linearGradient id="paint7_linear_3250_858" x1="19.925" y1="1.99866" x2="-0.895013" y2="19.0359" gradientUnits="userSpaceOnUse">
<stop stop-color="#45A6FF"/>
<stop offset="1" stop-color="#1353BC"/>
</linearGradient>
</defs>
</svg>
