<svg width="25" height="24" viewBox="0 0 25 24" fill="none" xmlns="http://www.w3.org/2000/svg">
<path d="M5.55703 4.60034C9.23494 1.52882 14.6057 1.3479 18.5413 4.06914L18.3798 2.57573C18.3133 2.04684 18.7016 1.56632 19.2516 1.5052C19.8001 1.44426 20.2974 1.82388 20.3658 2.35219L20.8654 6.47241C20.9048 6.75748 20.811 7.04525 20.6074 7.25588L20.5957 7.26791L20.5316 7.32144L20.5307 7.32221C20.3408 7.47963 20.0968 7.5612 19.8476 7.55226L16.34 8.13337L16.3004 8.1304C15.7509 8.08927 15.3359 7.62624 15.3728 7.09549C15.4079 6.59024 15.8398 6.20457 16.3546 6.2006L17.5013 5.72019C13.8876 3.1312 8.80069 3.66311 5.91382 7.00654C2.91494 10.4797 3.41843 15.6798 7.04843 18.6201C10.2712 21.2304 14.9487 21.2133 18.0927 18.5868L18.0973 18.5832C20.1075 16.9657 21.164 14.4915 20.9252 11.9558C20.8712 11.4252 21.2721 10.9533 21.8239 10.9055C22.373 10.858 22.8606 11.249 22.9152 11.7785L22.9154 11.7805C23.2199 14.9401 21.9094 18.0297 19.4043 20.0539C15.026 23.7086 8.38035 23.2072 4.55853 18.9431C0.736131 14.6784 1.17872 8.25679 5.55703 4.60034Z" fill="url(#paint0_linear_3250_854)"/>
<path d="M11.1114 8.51207C10.9455 7.82769 9.97214 7.82769 9.80619 8.51207L9.34956 10.3952C9.29031 10.6395 9.09953 10.8303 8.85519 10.8895L6.97209 11.3462C6.28771 11.5121 6.28771 12.4855 6.97209 12.6514L8.85519 13.108C9.09953 13.1673 9.29031 13.3581 9.34956 13.6024L9.80619 15.4855C9.97214 16.1699 10.9455 16.1699 11.1114 15.4855L11.5681 13.6024C11.6273 13.3581 11.8181 13.1673 12.0624 13.108L13.9455 12.6514C14.6299 12.4855 14.6299 11.5121 13.9455 11.3462L12.0624 10.8895C11.8181 10.8303 11.6273 10.6395 11.5681 10.3952L11.1114 8.51207Z" fill="url(#paint1_linear_3250_854)"/>
<path d="M13.4588 16.9988C13.4588 17.5511 13.9065 17.9988 14.4588 17.9988C15.0111 17.9988 15.4588 17.5511 15.4588 16.9988C15.4588 16.4465 15.0111 15.9988 14.4588 15.9988C13.9065 15.9988 13.4588 16.4465 13.4588 16.9988Z" fill="url(#paint2_linear_3250_854)"/>
<path d="M17.4588 12.9988C16.9065 12.9988 16.4588 12.5511 16.4588 11.9988C16.4588 11.4465 16.9065 10.9988 17.4588 10.9988C18.0111 10.9988 18.4588 11.4465 18.4588 11.9988C18.4588 12.5511 18.0111 12.9988 17.4588 12.9988Z" fill="url(#paint3_linear_3250_854)"/>
<defs>
<linearGradient id="paint0_linear_3250_854" x1="20.2984" y1="1.49878" x2="-1.56264" y2="19.3879" gradientUnits="userSpaceOnUse">
<stop stop-color="#45A6FF"/>
<stop offset="1" stop-color="#1353BC"/>
</linearGradient>
<linearGradient id="paint1_linear_3250_854" x1="20.2984" y1="1.49878" x2="-1.56264" y2="19.3879" gradientUnits="userSpaceOnUse">
<stop stop-color="#45A6FF"/>
<stop offset="1" stop-color="#1353BC"/>
</linearGradient>
<linearGradient id="paint2_linear_3250_854" x1="20.2984" y1="1.49878" x2="-1.56264" y2="19.3879" gradientUnits="userSpaceOnUse">
<stop stop-color="#45A6FF"/>
<stop offset="1" stop-color="#1353BC"/>
</linearGradient>
<linearGradient id="paint3_linear_3250_854" x1="20.2984" y1="1.49878" x2="-1.56264" y2="19.3879" gradientUnits="userSpaceOnUse">
<stop stop-color="#45A6FF"/>
<stop offset="1" stop-color="#1353BC"/>
</linearGradient>
</defs>
</svg>
