<svg width="189" height="188" viewBox="0 0 189 188" fill="none" xmlns="http://www.w3.org/2000/svg">
<circle cx="94.5" cy="94" r="94" fill="#45A6FF" fill-opacity="0.2"/>
<path d="M92.1392 94.8344C92.1392 102.511 90.6696 108.411 87.7306 112.535C84.8354 116.614 80.8216 118.654 75.6892 118.654C70.5568 118.654 66.521 116.614 63.582 112.535C60.6868 108.411 59.2392 102.511 59.2392 94.8344C59.2392 91.018 59.612 87.6403 60.3578 84.7012C61.1474 81.7621 62.266 79.2837 63.7136 77.2658C65.1612 75.2479 66.8939 73.7126 68.9118 72.6598C70.9296 71.607 73.1888 71.0806 75.6892 71.0806C80.8216 71.0806 84.8354 73.1423 87.7306 77.2658C90.6696 81.3454 92.1392 87.2016 92.1392 94.8344ZM82.1376 94.8344C82.1376 92.5533 82.0279 90.4916 81.8086 88.6492C81.5892 86.7629 81.2383 85.1399 80.7558 83.78C80.2732 82.4201 79.6152 81.3673 78.7818 80.6216C77.9483 79.8759 76.9174 79.503 75.6892 79.503C74.4609 79.503 73.43 79.8759 72.5966 80.6216C71.807 81.3673 71.149 82.4201 70.6226 83.78C70.14 85.1399 69.7891 86.7629 69.5698 88.6492C69.3504 90.4916 69.2408 92.5533 69.2408 94.8344C69.2408 97.1155 69.3504 99.1991 69.5698 101.085C69.7891 102.972 70.14 104.595 70.6226 105.955C71.149 107.314 71.807 108.367 72.5966 109.113C73.43 109.859 74.4609 110.232 75.6892 110.232C76.9174 110.232 77.9483 109.859 78.7818 109.113C79.6152 108.367 80.2732 107.314 80.7558 105.955C81.2383 104.595 81.5892 102.972 81.8086 101.085C82.0279 99.1991 82.1376 97.1155 82.1376 94.8344ZM99.006 81.6086C100.278 81.0822 101.594 80.49 102.954 79.832C104.358 79.1301 105.718 78.3844 107.034 77.5948C108.35 76.7613 109.6 75.9059 110.784 75.0286C112.012 74.1074 113.109 73.1423 114.074 72.1334H120.917V117.733H111.113V84.8986C109.797 85.7759 108.328 86.5875 106.705 87.3332C105.082 88.0351 103.502 88.6492 101.967 89.1756L99.006 81.6086Z" fill="#45A6FF"/>
</svg>
