<svg width="188" height="188" viewBox="0 0 188 188" fill="none" xmlns="http://www.w3.org/2000/svg">
<circle cx="94" cy="94" r="94" fill="#45A6FF" fill-opacity="0.2"/>
<path d="M91.6391 94.8343C91.6391 102.511 90.1695 108.411 87.2305 112.534C84.3353 116.614 80.3215 118.654 75.1891 118.654C70.0567 118.654 66.0209 116.614 63.0819 112.534C60.1867 108.411 58.7391 102.511 58.7391 94.8343C58.7391 91.0179 59.1119 87.6401 59.8577 84.7011C60.6473 81.762 61.7659 79.2835 63.2135 77.2657C64.6611 75.2478 66.3938 73.7125 68.4117 72.6597C70.4295 71.6069 72.6887 71.0805 75.1891 71.0805C80.3215 71.0805 84.3353 73.1422 87.2305 77.2657C90.1695 81.3453 91.6391 87.2015 91.6391 94.8343ZM81.6375 94.8343C81.6375 92.5532 81.5278 90.4915 81.3085 88.6491C81.0891 86.7628 80.7382 85.1397 80.2557 83.7799C79.7731 82.42 79.1151 81.3672 78.2817 80.6215C77.4482 79.8757 76.4173 79.5029 75.1891 79.5029C73.9608 79.5029 72.9299 79.8757 72.0965 80.6215C71.3069 81.3672 70.6489 82.42 70.1225 83.7799C69.6399 85.1397 69.289 86.7628 69.0697 88.6491C68.8503 90.4915 68.7407 92.5532 68.7407 94.8343C68.7407 97.1153 68.8503 99.199 69.0697 101.085C69.289 102.972 69.6399 104.595 70.1225 105.954C70.6489 107.314 71.3069 108.367 72.0965 109.113C72.9299 109.859 73.9608 110.231 75.1891 110.231C76.4173 110.231 77.4482 109.859 78.2817 109.113C79.1151 108.367 79.7731 107.314 80.2557 105.954C80.7382 104.595 81.0891 102.972 81.3085 101.085C81.5278 99.199 81.6375 97.1153 81.6375 94.8343ZM126.537 84.1089C126.537 85.7758 126.208 87.3769 125.55 88.9123C124.892 90.4476 124.036 91.9391 122.984 93.3867C121.931 94.7904 120.746 96.1503 119.43 97.4663C118.114 98.7823 116.82 100.032 115.548 101.217C114.89 101.831 114.166 102.533 113.377 103.322C112.631 104.068 111.907 104.836 111.205 105.625C110.503 106.415 109.867 107.161 109.297 107.863C108.771 108.521 108.442 109.069 108.31 109.508H127.919V117.733H97.5189C97.4312 117.25 97.3873 116.636 97.3873 115.89C97.3873 115.145 97.3873 114.618 97.3873 114.311C97.3873 112.205 97.7163 110.275 98.3743 108.521C99.0762 106.766 99.9754 105.143 101.072 103.651C102.169 102.116 103.397 100.69 104.757 99.3745C106.161 98.0585 107.542 96.7425 108.902 95.4265C109.955 94.4175 110.942 93.4744 111.863 92.5971C112.785 91.6759 113.596 90.7985 114.298 89.9651C115 89.0877 115.548 88.2323 115.943 87.3989C116.338 86.5215 116.535 85.6442 116.535 84.7669C116.535 82.8367 115.987 81.4769 114.89 80.6873C113.793 79.8977 112.434 79.5029 110.811 79.5029C109.626 79.5029 108.508 79.7003 107.455 80.0951C106.446 80.446 105.503 80.8847 104.625 81.4111C103.792 81.8936 103.068 82.3981 102.454 82.9245C101.84 83.407 101.379 83.8018 101.072 84.1089L96.2029 77.2657C98.133 75.4671 100.37 73.9976 102.915 72.8571C105.503 71.6727 108.266 71.0805 111.205 71.0805C113.881 71.0805 116.184 71.3875 118.114 72.0017C120.044 72.6158 121.624 73.4931 122.852 74.6337C124.124 75.7303 125.045 77.0902 125.616 78.7133C126.23 80.2925 126.537 82.091 126.537 84.1089Z" fill="#45A6FF"/>
</svg>
