<svg width="188" height="188" viewBox="0 0 188 188" fill="none" xmlns="http://www.w3.org/2000/svg">
<circle cx="94" cy="94" r="94" fill="#45A6FF" fill-opacity="0.2"/>
<path d="M91.6391 94.8343C91.6391 102.511 90.1695 108.411 87.2305 112.534C84.3353 116.614 80.3215 118.654 75.1891 118.654C70.0567 118.654 66.0209 116.614 63.0819 112.534C60.1867 108.411 58.7391 102.511 58.7391 94.8343C58.7391 91.0179 59.1119 87.6401 59.8577 84.7011C60.6473 81.762 61.7659 79.2835 63.2135 77.2657C64.6611 75.2478 66.3938 73.7125 68.4117 72.6597C70.4295 71.6069 72.6887 71.0805 75.1891 71.0805C80.3215 71.0805 84.3353 73.1422 87.2305 77.2657C90.1695 81.3453 91.6391 87.2015 91.6391 94.8343ZM81.6375 94.8343C81.6375 92.5532 81.5278 90.4915 81.3085 88.6491C81.0891 86.7628 80.7382 85.1397 80.2557 83.7799C79.7731 82.42 79.1151 81.3672 78.2817 80.6215C77.4482 79.8757 76.4173 79.5029 75.1891 79.5029C73.9608 79.5029 72.9299 79.8757 72.0965 80.6215C71.3069 81.3672 70.6489 82.42 70.1225 83.7799C69.6399 85.1397 69.289 86.7628 69.0697 88.6491C68.8503 90.4915 68.7407 92.5532 68.7407 94.8343C68.7407 97.1153 68.8503 99.199 69.0697 101.085C69.289 102.972 69.6399 104.595 70.1225 105.954C70.6489 107.314 71.3069 108.367 72.0965 109.113C72.9299 109.859 73.9608 110.231 75.1891 110.231C76.4173 110.231 77.4482 109.859 78.2817 109.113C79.1151 108.367 79.7731 107.314 80.2557 105.954C80.7382 104.595 81.0891 102.972 81.3085 101.085C81.5278 99.199 81.6375 97.1153 81.6375 94.8343ZM108.902 118.72C107.718 118.72 106.468 118.632 105.152 118.456C103.836 118.325 102.564 118.127 101.335 117.864C100.107 117.601 98.9884 117.316 97.9795 117.009C96.9706 116.702 96.181 116.417 95.6107 116.153L97.5189 107.994C98.6594 108.477 100.107 109.003 101.862 109.573C103.66 110.1 105.876 110.363 108.508 110.363C111.534 110.363 113.75 109.793 115.153 108.652C116.557 107.512 117.259 105.976 117.259 104.046C117.259 102.862 116.996 101.875 116.469 101.085C115.987 100.252 115.307 99.5938 114.43 99.1113C113.552 98.5849 112.499 98.2339 111.271 98.0585C110.087 97.8391 108.815 97.7295 107.455 97.7295H103.638V89.8335H107.981C108.946 89.8335 109.867 89.7457 110.745 89.5703C111.666 89.3948 112.477 89.1097 113.179 88.7149C113.881 88.2762 114.43 87.7059 114.824 87.0041C115.263 86.2583 115.482 85.3371 115.482 84.2405C115.482 83.407 115.307 82.6832 114.956 82.0691C114.605 81.4549 114.144 80.9505 113.574 80.5557C113.048 80.1609 112.412 79.8757 111.666 79.7003C110.964 79.4809 110.24 79.3713 109.495 79.3713C107.608 79.3713 105.854 79.6564 104.231 80.2267C102.651 80.7969 101.204 81.4988 99.8877 82.3323L96.4003 75.1601C97.1022 74.7214 97.9137 74.2608 98.8349 73.7783C99.8 73.2957 100.853 72.8571 101.993 72.4623C103.134 72.0675 104.34 71.7385 105.612 71.4753C106.928 71.2121 108.31 71.0805 109.758 71.0805C112.434 71.0805 114.737 71.4095 116.667 72.0675C118.641 72.6816 120.264 73.5809 121.536 74.7653C122.808 75.9058 123.751 77.2657 124.365 78.8449C124.979 80.3802 125.287 82.0691 125.287 83.9115C125.287 85.71 124.782 87.4647 123.773 89.1755C122.764 90.8424 121.404 92.1145 119.694 92.9919C122.062 93.9569 123.883 95.4045 125.155 97.3347C126.471 99.2209 127.129 101.502 127.129 104.178C127.129 106.283 126.778 108.236 126.076 110.034C125.374 111.789 124.278 113.324 122.786 114.64C121.295 115.912 119.386 116.921 117.062 117.667C114.78 118.369 112.061 118.72 108.902 118.72Z" fill="#45A6FF"/>
</svg>
