<svg width="188" height="188" viewBox="0 0 188 188" fill="none" xmlns="http://www.w3.org/2000/svg">
<circle cx="94" cy="94" r="94" fill="#45A6FF" fill-opacity="0.2"/>
<path d="M91.6391 94.8344C91.6391 102.511 90.1695 108.411 87.2305 112.535C84.3353 116.614 80.3215 118.654 75.1891 118.654C70.0567 118.654 66.0209 116.614 63.0819 112.535C60.1867 108.411 58.7391 102.511 58.7391 94.8344C58.7391 91.018 59.1119 87.6403 59.8577 84.7012C60.6473 81.7621 61.7659 79.2837 63.2135 77.2658C64.6611 75.2479 66.3938 73.7126 68.4117 72.6598C70.4295 71.607 72.6887 71.0806 75.1891 71.0806C80.3215 71.0806 84.3353 73.1423 87.2305 77.2658C90.1695 81.3454 91.6391 87.2016 91.6391 94.8344ZM81.6375 94.8344C81.6375 92.5533 81.5278 90.4916 81.3085 88.6492C81.0891 86.7629 80.7382 85.1399 80.2557 83.78C79.7731 82.4201 79.1151 81.3673 78.2817 80.6216C77.4482 79.8759 76.4173 79.503 75.1891 79.503C73.9608 79.503 72.9299 79.8759 72.0965 80.6216C71.3069 81.3673 70.6489 82.4201 70.1225 83.78C69.6399 85.1399 69.289 86.7629 69.0697 88.6492C68.8503 90.4916 68.7407 92.5533 68.7407 94.8344C68.7407 97.1155 68.8503 99.1991 69.0697 101.085C69.289 102.972 69.6399 104.595 70.1225 105.955C70.6489 107.314 71.3069 108.367 72.0965 109.113C72.9299 109.859 73.9608 110.232 75.1891 110.232C76.4173 110.232 77.4482 109.859 78.2817 109.113C79.1151 108.367 79.7731 107.314 80.2557 105.955C80.7382 104.595 81.0891 102.972 81.3085 101.085C81.5278 99.1991 81.6375 97.1155 81.6375 94.8344ZM114.89 84.109C113.179 86.3462 111.359 88.7808 109.429 91.4128C107.499 94.0448 105.876 96.7426 104.56 99.5062H114.89V84.109ZM124.497 72.1334V99.5062H129.366V107.534H124.497V117.733H114.89V107.534H95.2159V100.362C96.181 98.4315 97.3873 96.2601 98.8349 93.8474C100.283 91.3909 101.884 88.8905 103.638 86.3462C105.437 83.7581 107.323 81.2357 109.297 78.7792C111.271 76.3227 113.245 74.1074 115.219 72.1334H124.497Z" fill="#45A6FF"/>
</svg>
