<svg xmlns="http://www.w3.org/2000/svg" width="51" height="62" viewBox="0 0 51 62" fill="none">
  <g clip-path="url(#clip0_9067_671)">
    <path d="M38.9321 38.6099C39.6488 42.3773 40.0668 46.5667 40.1899 51.1742V61.3152H32.2065V51.2638C32.087 48.034 31.8482 45.2524 31.4899 42.9187C26.2273 46.029 20.9796 49.1094 15.7469 52.1636C10.5141 55.2142 5.26644 58.2647 0.00384521 61.319V51.1779C0.242715 41.7239 2.08276 32.6171 5.52024 23.8501C8.95399 15.0832 13.8135 7.23095 20.095 0.289795C24.0998 4.7181 27.4813 9.38536 30.2321 14.2879C32.9828 19.1941 35.2259 24.5484 36.9615 30.3507L46.2923 24.8769L50.2411 31.9675L38.9396 38.6099H38.9321ZM29.7804 34.5699C27.7463 26.9119 24.5178 19.8512 20.0913 13.3917C16.7397 18.3577 14.0486 23.712 12.0182 29.4546C9.98412 35.1972 8.73005 41.0929 8.25231 47.1342C17.8183 41.5111 24.9956 37.3217 29.7804 34.5699Z" fill="#005FDF"/>
  </g>
  <defs>
    <clipPath id="clip0_9067_671">
      <rect width="50.2373" height="61.0254" fill="white" transform="translate(0 0.289795)"/>
    </clipPath>
  </defs>
</svg>