<svg width="168" height="27" viewBox="0 0 168 27" fill="none" xmlns="http://www.w3.org/2000/svg">
<g clip-path="url(#clip0_2879_7019)">
<path d="M0 0.403809H14.3943C18.8808 0.403809 22.4325 2.27467 22.4325 7.1395C22.4325 10.3211 20.5629 11.9662 20.5629 12.0043C20.5629 12.0043 24.3021 13.6875 24.3021 18.3647C24.3021 23.0418 21.3101 26.5959 15.3291 26.5959H0V0.403809ZM16.0793 10.6936C16.0793 10.6936 17.5738 9.38278 17.5738 7.51192C17.5738 5.82873 16.4515 4.70562 13.8346 4.70562H4.8616V9.57045L16.0793 10.6936ZM15.1445 22.1064C17.2017 22.1064 19.4435 21.3587 19.4435 18.5524C19.4435 15.7461 17.7614 15.0364 15.1445 14.8106L4.8616 13.8752V22.1064H15.1445Z" fill="#45A6FF"/>
<path d="M34.0252 0.403809H45.243L54.216 26.5959H49.1697L46.3653 18.3647L32.1556 20.7956L30.0985 26.5959H25.0493L34.0252 0.403809ZM44.8679 14.2476L41.6883 4.89329H37.5769L33.6502 16.1185L44.8679 14.2476Z" fill="#45A6FF"/>
<path d="M59.2623 0.403809H64.4961L72.9093 18.177L81.3226 0.403809H86.5564L89.7359 26.5959H84.8743L82.6296 7.88726L75.8984 22.1064H69.9144L63.1832 7.88726L60.9385 26.5959H56.0769L59.2623 0.403809Z" fill="#45A6FF"/>
<path d="M93.1001 0.403809H107.494C111.981 0.403809 115.533 2.27467 115.533 7.1395C115.533 10.3211 113.663 11.9662 113.663 12.0043C113.663 12.0043 117.402 13.6875 117.402 18.3647C117.402 23.0418 114.41 26.5959 108.429 26.5959H93.1001V0.403809ZM109.179 10.6936C109.179 10.6936 110.674 9.38278 110.674 7.51192C110.674 5.82873 109.552 4.70562 106.935 4.70562H97.9617V9.57045L109.179 10.6936ZM108.245 22.1064C110.302 22.1064 112.544 21.3587 112.544 18.5524C112.544 15.7461 110.861 15.0364 108.245 14.8106L97.9617 13.8752V22.1064H108.245Z" fill="#45A6FF"/>
<path d="M120.769 0.403809H125.631V22.1035H141.895V26.593H120.769V0.403809Z" fill="#45A6FF"/>
<path d="M144.887 0.403809H167.322V4.89329H149.748V9.19511H163.023V13.6846H149.748V22.1035H167.322V26.593H144.887V0.403809Z" fill="#45A6FF"/>
</g>
<defs>
<clipPath id="clip0_2879_7019">
<rect width="167.319" height="26.1921" fill="white" transform="translate(0 0.403809)"/>
</clipPath>
</defs>
</svg>
