<svg width="157" height="26" viewBox="0 0 157 26" fill="none" xmlns="http://www.w3.org/2000/svg">
<g id="Frame" clip-path="url(#clip0_9067_673)">
<path id="Vector" d="M0.652527 0.645752H14.1029C18.2953 0.645752 21.614 2.39394 21.614 6.93976C21.614 9.91277 19.867 11.45 19.867 11.4856C19.867 11.4856 23.3611 13.0584 23.3611 17.4289C23.3611 21.7993 20.5653 25.1203 14.9765 25.1203H0.652527V0.645752ZM15.6775 10.2608C15.6775 10.2608 17.074 9.03594 17.074 7.28776C17.074 5.71494 16.0252 4.66548 13.5799 4.66548H5.19533V9.21131L15.6775 10.2608ZM14.8039 20.9252C16.7262 20.9252 18.821 20.2265 18.821 17.6042C18.821 14.982 17.2492 14.3189 14.8039 14.1079L5.19533 13.2338V20.9252H14.8039Z" fill="black"/>
<path id="Vector_2" d="M32.4467 0.645752H42.9289L51.3135 25.1203H46.5982L43.9776 17.4289L30.6997 19.7004L28.7774 25.1203H24.0594L32.4467 0.645752ZM42.5784 13.5818L39.6073 4.84085H35.7655L32.0962 15.3299L42.5784 13.5818Z" fill="black"/>
<path id="Vector_3" d="M56.0288 0.645752H60.9194L68.781 17.2535L76.6426 0.645752H81.5331L84.5042 25.1203H79.9614L77.8638 7.63849L71.574 20.9252H65.9825L59.6926 7.63849L57.5951 25.1203H53.0523L56.0288 0.645752Z" fill="black"/>
<path id="Vector_4" d="M87.6477 0.645752H101.098C105.29 0.645752 108.609 2.39394 108.609 6.93976C108.609 9.91277 106.862 11.45 106.862 11.4856C106.862 11.4856 110.356 13.0584 110.356 17.4289C110.356 21.7993 107.56 25.1203 101.972 25.1203H87.6477V0.645752ZM102.673 10.2608C102.673 10.2608 104.069 9.03594 104.069 7.28776C104.069 5.71494 103.02 4.66548 100.575 4.66548H92.1905V9.21131L102.673 10.2608ZM101.799 20.9252C103.721 20.9252 105.816 20.2265 105.816 17.6042C105.816 14.982 104.244 14.3189 101.799 14.1079L92.1905 13.2338V20.9252H101.799Z" fill="black"/>
<path id="Vector_5" d="M113.503 0.645752H118.045V20.9225H133.243V25.1176H113.503V0.645752Z" fill="black"/>
<path id="Vector_6" d="M136.039 0.645752H157.003V4.84085H140.581V8.86057H152.986V13.0557H140.581V20.9225H157.003V25.1176H136.039V0.645752Z" fill="black"/>
</g>
<defs>
<clipPath id="clip0_9067_673">
<rect width="156.347" height="24.4746" fill="white" transform="translate(0.652527 0.645752)"/>
</clipPath>
</defs>
</svg>
