<svg xmlns="http://www.w3.org/2000/svg" width="30" height="30" viewBox="0 0 30 30" fill="none">
  <path d="M15 2.50049C21.9036 2.50049 27.5 8.09693 27.5 15.0005C27.5 21.904 21.9036 27.5005 15 27.5005C8.09644 27.5005 2.5 21.904 2.5 15.0005C2.5 8.09693 8.09644 2.50049 15 2.50049ZM19.0246 11.2126L13.4375 16.7997L10.9754 14.3376C10.6093 13.9715 10.0157 13.9715 9.64959 14.3376C9.28347 14.7037 9.28347 15.2973 9.64959 15.6634L12.7746 18.7884C13.1407 19.1545 13.7343 19.1545 14.1004 18.7884L20.3504 12.5384C20.7165 12.1723 20.7165 11.5787 20.3504 11.2126C19.9843 10.8465 19.3907 10.8465 19.0246 11.2126Z" fill="#005FDF"/>
</svg>