<svg width="12" height="12" viewBox="0 0 12 12" fill="none" xmlns="http://www.w3.org/2000/svg">
<g clip-path="url(#clip0_3487_10797)">
<path d="M1.5 4.50014C1.49998 3.75705 1.68398 3.02552 2.03556 2.37087C2.38715 1.71621 2.89538 1.15882 3.51488 0.748445C4.13438 0.338073 4.84587 0.087502 5.5858 0.0191043C6.32574 -0.0492935 7.0711 0.0666114 7.75532 0.35647C8.43955 0.646328 9.04135 1.10112 9.50698 1.68023C9.97261 2.25934 10.2876 2.94475 10.4238 3.67525C10.56 4.40576 10.5131 5.15862 10.2875 5.86661C10.0618 6.57461 9.66431 7.2157 9.1305 7.73264C8.97825 7.87964 8.86125 8.03264 8.79075 8.19689L8.21925 9.52364C8.19025 9.59088 8.1422 9.64817 8.08103 9.68842C8.01985 9.72867 7.94823 9.75012 7.875 9.75014H4.125C4.05165 9.75027 3.97986 9.72888 3.91854 9.68862C3.85722 9.64836 3.80905 9.591 3.78 9.52364L3.20925 8.19614C3.12694 8.02119 3.01157 7.8638 2.8695 7.73264C2.43558 7.31362 2.09065 6.81138 1.85534 6.25596C1.62002 5.70053 1.49917 5.10335 1.5 4.50014ZM3.75 10.8751C3.75 10.7757 3.78951 10.6803 3.85984 10.61C3.93017 10.5397 4.02555 10.5001 4.125 10.5001H7.875C7.97446 10.5001 8.06984 10.5397 8.14017 10.61C8.21049 10.6803 8.25 10.7757 8.25 10.8751C8.25 10.9746 8.21049 11.07 8.14017 11.1403C8.06984 11.2106 7.97446 11.2501 7.875 11.2501L7.707 11.5854C7.64476 11.71 7.54907 11.8147 7.43065 11.888C7.31223 11.9612 7.17575 12.0001 7.0365 12.0001H4.9635C4.82426 12.0001 4.68778 11.9612 4.56936 11.888C4.45094 11.8147 4.35525 11.71 4.293 11.5854L4.125 11.2501C4.02555 11.2501 3.93017 11.2106 3.85984 11.1403C3.78951 11.07 3.75 10.9746 3.75 10.8751Z" fill="black"/>
</g>
<defs>
<clipPath id="clip0_3487_10797">
<rect width="12" height="12" fill="white"/>
</clipPath>
</defs>
</svg>
