<svg width="239" height="49" viewBox="0 0 239 49" fill="none" xmlns="http://www.w3.org/2000/svg">
<path d="M237.94 4.06807C238.214 4.10127 238.463 3.90596 238.496 3.63182C238.53 3.35768 238.334 3.10853 238.06 3.07532L237.94 4.06807ZM0.926848 46.102C29.0565 50.2622 49.07 48.6328 65.4969 44.1002C81.9114 39.5709 94.7212 32.1463 108.403 24.7844C122.09 17.4194 136.685 10.0951 156.743 5.68104C176.802 1.26657 202.353 -0.242337 237.94 4.06807L238.06 3.07532C202.388 -1.2454 176.721 0.260561 156.528 4.70441C136.333 9.14871 121.64 16.5261 107.929 23.9038C94.2125 31.2845 81.5129 38.6435 65.2309 43.1362C48.9612 47.6255 29.0908 49.2564 1.07315 45.1128L0.926848 46.102Z" fill="#1A202C"/>
</svg>
