<svg width="50" height="50" viewBox="0 0 50 50" fill="none" xmlns="http://www.w3.org/2000/svg">
<circle cx="25" cy="25" r="25" fill="#45A6FF" fill-opacity="0.2"/>
<g clip-path="url(#clip0_2873_4862)">
<path d="M30 15H20C19.337 15 18.7011 15.2634 18.2322 15.7322C17.7634 16.2011 17.5 16.837 17.5 17.5V32.5C17.5 33.163 17.7634 33.7989 18.2322 34.2678C18.7011 34.7366 19.337 35 20 35H30C30.663 35 31.2989 34.7366 31.7678 34.2678C32.2366 33.7989 32.5 33.163 32.5 32.5V17.5C32.5 16.837 32.2366 16.2011 31.7678 15.7322C31.2989 15.2634 30.663 15 30 15ZM25 21.25C25.1658 21.25 25.3247 21.3158 25.4419 21.4331C25.5592 21.5503 25.625 21.7092 25.625 21.875V26.6163L27.0575 25.1825C27.1749 25.0651 27.334 24.9992 27.5 24.9992C27.666 24.9992 27.8251 25.0651 27.9425 25.1825C28.0599 25.2999 28.1258 25.459 28.1258 25.625C28.1258 25.791 28.0599 25.9501 27.9425 26.0675L25.4425 28.5675C25.3844 28.6257 25.3155 28.6719 25.2395 28.7034C25.1636 28.7349 25.0822 28.7511 25 28.7511C24.9178 28.7511 24.8364 28.7349 24.7605 28.7034C24.6845 28.6719 24.6156 28.6257 24.5575 28.5675L22.0575 26.0675C21.9994 26.0094 21.9533 25.9404 21.9218 25.8645C21.8904 25.7886 21.8742 25.7072 21.8742 25.625C21.8742 25.5428 21.8904 25.4614 21.9218 25.3855C21.9533 25.3096 21.9994 25.2406 22.0575 25.1825C22.1749 25.0651 22.334 24.9992 22.5 24.9992C22.5822 24.9992 22.6636 25.0154 22.7395 25.0468C22.8154 25.0783 22.8844 25.1244 22.9425 25.1825L24.375 26.6163V21.875C24.375 21.7092 24.4408 21.5503 24.5581 21.4331C24.6753 21.3158 24.8342 21.25 25 21.25Z" fill="#45A6FF"/>
</g>
<defs>
<clipPath id="clip0_2873_4862">
<rect width="20" height="20" fill="white" transform="translate(15 15)"/>
</clipPath>
</defs>
</svg>
