<svg xmlns="http://www.w3.org/2000/svg" width="30" height="31" viewBox="0 0 30 31" fill="none">
  <path d="M14.8542 5.84239L15 5.83398C15.641 5.83398 16.1694 6.31653 16.2416 6.93821L16.25 7.08398L16.25 21.5637L19.1157 18.6965C19.5661 18.2457 20.2751 18.2107 20.7657 18.5917L20.8835 18.6957C21.3343 19.1461 21.3693 19.8551 20.9882 20.3456L20.8843 20.4634L15.889 25.4634C15.4386 25.9142 14.7296 25.9492 14.239 25.5682L14.1212 25.4643L9.11653 20.4643C8.62815 19.9763 8.62778 19.1849 9.1157 18.6965C9.56609 18.2457 10.2751 18.2107 10.7657 18.5917L10.8835 18.6957L13.75 21.5587L13.75 7.08398C13.75 6.44294 14.2326 5.9146 14.8542 5.84239L15 5.83398L14.8542 5.84239Z" fill="#005FDF"/>
</svg>