<svg xmlns="http://www.w3.org/2000/svg" width="30" height="30" viewBox="0 0 30 30" fill="none">
  <path d="M15 2.49915C21.9046 2.49915 27.5019 8.09645 27.5019 15.0011C27.5019 21.9057 21.9046 27.503 15 27.503C8.09537 27.503 2.49806 21.9057 2.49806 15.0011C2.49806 8.09645 8.09537 2.49915 15 2.49915ZM15 4.37415C9.1309 4.37415 4.37306 9.13199 4.37306 15.0011C4.37306 20.8702 9.1309 25.628 15 25.628C20.8691 25.628 25.6269 20.8702 25.6269 15.0011C25.6269 9.13199 20.8691 4.37415 15 4.37415ZM14.9954 13.1249C15.4701 13.1246 15.8625 13.477 15.9249 13.9346L15.9336 14.0618L15.9381 20.9388C15.9384 21.4565 15.5189 21.8765 15.0012 21.8769C14.5266 21.8772 14.1341 21.5247 14.0717 21.0672L14.0631 20.94L14.0586 14.063C14.0582 13.5452 14.4777 13.1252 14.9954 13.1249ZM15.0006 8.75267C15.69 8.75267 16.2489 9.31156 16.2489 10.001C16.2489 10.6904 15.69 11.2493 15.0006 11.2493C14.3111 11.2493 13.7522 10.6904 13.7522 10.001C13.7522 9.31156 14.3111 8.75267 15.0006 8.75267Z" fill="#005FDF"/>
</svg>