<svg width="50" height="50" viewBox="0 0 50 50" fill="none" xmlns="http://www.w3.org/2000/svg">
<circle cx="25" cy="25" r="25" fill="#45A6FF" fill-opacity="0.2"/>
<g clip-path="url(#clip0_2873_4889)">
<path d="M25 33.75C22.6794 33.75 20.4538 32.8281 18.8128 31.1872C17.1719 29.5462 16.25 27.3206 16.25 25C16.25 22.6794 17.1719 20.4538 18.8128 18.8128C20.4538 17.1719 22.6794 16.25 25 16.25C27.3206 16.25 29.5462 17.1719 31.1872 18.8128C32.8281 20.4538 33.75 22.6794 33.75 25C33.75 27.3206 32.8281 29.5462 31.1872 31.1872C29.5462 32.8281 27.3206 33.75 25 33.75ZM25 35C27.6522 35 30.1957 33.9464 32.0711 32.0711C33.9464 30.1957 35 27.6522 35 25C35 22.3478 33.9464 19.8043 32.0711 17.9289C30.1957 16.0536 27.6522 15 25 15C22.3478 15 19.8043 16.0536 17.9289 17.9289C16.0536 19.8043 15 22.3478 15 25C15 27.6522 16.0536 30.1957 17.9289 32.0711C19.8043 33.9464 22.3478 35 25 35Z" fill="#45A6FF"/>
<path d="M25 31.25C23.3424 31.25 21.7527 30.5915 20.5806 29.4194C19.4085 28.2473 18.75 26.6576 18.75 25C18.75 23.3424 19.4085 21.7527 20.5806 20.5806C21.7527 19.4085 23.3424 18.75 25 18.75C26.6576 18.75 28.2473 19.4085 29.4194 20.5806C30.5915 21.7527 31.25 23.3424 31.25 25C31.25 26.6576 30.5915 28.2473 29.4194 29.4194C28.2473 30.5915 26.6576 31.25 25 31.25ZM25 32.5C25.9849 32.5 26.9602 32.306 27.8701 31.9291C28.7801 31.5522 29.6069 30.9997 30.3033 30.3033C30.9997 29.6069 31.5522 28.7801 31.9291 27.8701C32.306 26.9602 32.5 25.9849 32.5 25C32.5 24.0151 32.306 23.0398 31.9291 22.1299C31.5522 21.2199 30.9997 20.3931 30.3033 19.6967C29.6069 19.0003 28.7801 18.4478 27.8701 18.0709C26.9602 17.694 25.9849 17.5 25 17.5C23.0109 17.5 21.1032 18.2902 19.6967 19.6967C18.2902 21.1032 17.5 23.0109 17.5 25C17.5 26.9891 18.2902 28.8968 19.6967 30.3033C21.1032 31.7098 23.0109 32.5 25 32.5Z" fill="#45A6FF"/>
<path d="M25 28.75C24.0054 28.75 23.0516 28.3549 22.3483 27.6517C21.6451 26.9484 21.25 25.9946 21.25 25C21.25 24.0054 21.6451 23.0516 22.3483 22.3483C23.0516 21.6451 24.0054 21.25 25 21.25C25.9946 21.25 26.9484 21.6451 27.6517 22.3483C28.3549 23.0516 28.75 24.0054 28.75 25C28.75 25.9946 28.3549 26.9484 27.6517 27.6517C26.9484 28.3549 25.9946 28.75 25 28.75ZM25 30C26.3261 30 27.5979 29.4732 28.5355 28.5355C29.4732 27.5979 30 26.3261 30 25C30 23.6739 29.4732 22.4021 28.5355 21.4645C27.5979 20.5268 26.3261 20 25 20C23.6739 20 22.4021 20.5268 21.4645 21.4645C20.5268 22.4021 20 23.6739 20 25C20 26.3261 20.5268 27.5979 21.4645 28.5355C22.4021 29.4732 23.6739 30 25 30Z" fill="#45A6FF"/>
<path d="M26.875 25C26.875 25.4973 26.6775 25.9742 26.3258 26.3258C25.9742 26.6775 25.4973 26.875 25 26.875C24.5027 26.875 24.0258 26.6775 23.6742 26.3258C23.3225 25.9742 23.125 25.4973 23.125 25C23.125 24.5027 23.3225 24.0258 23.6742 23.6742C24.0258 23.3225 24.5027 23.125 25 23.125C25.4973 23.125 25.9742 23.3225 26.3258 23.6742C26.6775 24.0258 26.875 24.5027 26.875 25Z" fill="#45A6FF"/>
</g>
<defs>
<clipPath id="clip0_2873_4889">
<rect width="20" height="20" fill="white" transform="translate(15 15)"/>
</clipPath>
</defs>
</svg>
