   <svg
                width="17"
                height="16"
                viewBox="0 0 17 16"
                fill="none"
                xmlns="http://www.w3.org/2000/svg"
              >
                <g clip-path="url(#clip0_3487_9997)">
                  <path
                    d="M14.5 1C14.7652 1 15.0196 1.10536 15.2071 1.29289C15.3946 1.48043 15.5 1.73478 15.5 2V14C15.5 14.2652 15.3946 14.5196 15.2071 14.7071C15.0196 14.8946 14.7652 15 14.5 15H2.5C2.23478 15 1.98043 14.8946 1.79289 14.7071C1.60536 14.5196 1.5 14.2652 1.5 14V2C1.5 1.73478 1.60536 1.48043 1.79289 1.29289C1.98043 1.10536 2.23478 1 2.5 1H14.5ZM2.5 0C1.96957 0 1.46086 0.210714 1.08579 0.585786C0.710714 0.960859 0.5 1.46957 0.5 2L0.5 14C0.5 14.5304 0.710714 15.0391 1.08579 15.4142C1.46086 15.7893 1.96957 16 2.5 16H14.5C15.0304 16 15.5391 15.7893 15.9142 15.4142C16.2893 15.0391 16.5 14.5304 16.5 14V2C16.5 1.46957 16.2893 0.960859 15.9142 0.585786C15.5391 0.210714 15.0304 0 14.5 0L2.5 0Z"
                    fill="#217DD1"
                  />
                  <path
                    d="M9.42995 6.588L7.13995 6.875L7.05795 7.255L7.50795 7.338C7.80195 7.408 7.85995 7.514 7.79595 7.807L7.05795 11.275C6.86395 12.172 7.16295 12.594 7.86595 12.594C8.41095 12.594 9.04395 12.342 9.33095 11.996L9.41895 11.58C9.21895 11.756 8.92695 11.826 8.73295 11.826C8.45795 11.826 8.35795 11.633 8.42895 11.293L9.42995 6.588ZM9.49995 4.5C9.49995 4.76522 9.3946 5.01957 9.20706 5.20711C9.01952 5.39464 8.76517 5.5 8.49995 5.5C8.23474 5.5 7.98038 5.39464 7.79285 5.20711C7.60531 5.01957 7.49995 4.76522 7.49995 4.5C7.49995 4.23478 7.60531 3.98043 7.79285 3.79289C7.98038 3.60536 8.23474 3.5 8.49995 3.5C8.76517 3.5 9.01952 3.60536 9.20706 3.79289C9.3946 3.98043 9.49995 4.23478 9.49995 4.5Z"
                    fill="#217DD1"
                  />
                </g>
                <defs>
                  <clipPath id="clip0_3487_9997">
                    <rect
                      width="16"
                      height="16"
                      fill="white"
                      transform="translate(0.5)"
                    />
                  </clipPath>
                </defs>
              </svg>