<svg width="40" height="41" viewBox="0 0 40 41" fill="none" xmlns="http://www.w3.org/2000/svg">
<rect x="0.5" y="1" width="39" height="39" rx="19.5" stroke="#217DD1"/>
<path d="M11.6772 25.8252H28.3272V15.1752H11.6772V25.8252ZM11.6772 27.5004C11.2272 27.5004 10.8356 27.3336 10.5024 27C10.1688 26.6668 10.002 26.2752 10.002 25.8252V15.1752C10.002 14.7252 10.1688 14.3336 10.5024 14.0004C10.8356 13.6668 11.2272 13.5 11.6772 13.5H28.3272C28.7772 13.5 29.1688 13.6668 29.502 14.0004C29.8356 14.3336 30.0024 14.7252 30.0024 15.1752V25.8252C30.0024 26.2752 29.8356 26.6668 29.502 27C29.1688 27.3336 28.7772 27.5004 28.3272 27.5004H11.6772ZM19.1772 18.2502H20.8272V16.575H19.1772V18.2502ZM19.1772 21.3252H20.8272V19.6752H19.1772V21.3252ZM16.1274 18.2502H17.7774V16.575H16.1274V18.2502ZM16.1274 21.3252H17.7774V19.6752H16.1274V21.3252ZM13.0524 21.3252H14.727V19.6752H13.0524V21.3252ZM13.0524 18.2502H14.727V16.575H13.0524V18.2502ZM16.5024 24.4254H23.502C23.7356 24.4254 23.9314 24.342 24.0894 24.1752C24.2478 24.0084 24.327 23.8084 24.327 23.5752C24.327 23.342 24.2478 23.1462 24.0894 22.9878C23.9314 22.8294 23.7356 22.7502 23.502 22.7502H16.5024C16.2688 22.7502 16.073 22.8294 15.915 22.9878C15.7566 23.1462 15.6774 23.342 15.6774 23.5752C15.6774 23.8252 15.7566 24.0294 15.915 24.1878C16.073 24.3462 16.2688 24.4254 16.5024 24.4254ZM22.227 21.3252H23.9022V19.6752H22.227V21.3252ZM22.227 18.2502H23.9022V16.575H22.227V18.2502ZM25.2774 21.3252H26.952V19.6752H25.2774V21.3252ZM25.2774 18.2502H26.952V16.575H25.2774V18.2502ZM11.6772 25.8252V15.1752V25.8252Z" fill="#217DD1"/>
</svg>
