<svg width="50" height="50" viewBox="0 0 50 50" fill="none" xmlns="http://www.w3.org/2000/svg">
<circle cx="25" cy="25" r="25" fill="#45A6FF" fill-opacity="0.2"/>
<g clip-path="url(#clip0_2873_4920)">
<path d="M15 16.4325C15 15.6413 15.6575 15 16.4688 15H33.5312C34.3425 15 35 15.6413 35 16.4325V33.5675C35 34.3587 34.3425 35 33.5312 35H16.4688C15.6575 35 15 34.3587 15 33.5675V16.4325ZM21.1788 31.7425V22.7113H18.1775V31.7425H21.1788ZM19.6788 21.4775C20.725 21.4775 21.3762 20.785 21.3762 19.9175C21.3575 19.0312 20.7263 18.3575 19.6988 18.3575C18.6713 18.3575 18 19.0325 18 19.9175C18 20.785 18.6512 21.4775 19.6588 21.4775H19.6788ZM25.8138 31.7425V26.6988C25.8138 26.4288 25.8337 26.1587 25.9137 25.9662C26.13 25.4275 26.6238 24.8687 27.4538 24.8687C28.54 24.8687 28.9738 25.6962 28.9738 26.9113V31.7425H31.975V26.5625C31.975 23.7875 30.495 22.4975 28.52 22.4975C26.9275 22.4975 26.2137 23.3725 25.8138 23.9888V24.02H25.7938L25.8138 23.9888V22.7113H22.8137C22.8512 23.5588 22.8137 31.7425 22.8137 31.7425H25.8138Z" fill="#45A6FF"/>
</g>
<defs>
<clipPath id="clip0_2873_4920">
<rect width="20" height="20" fill="white" transform="translate(15 15)"/>
</clipPath>
</defs>
</svg>
