<svg width="24" height="25" viewBox="0 0 24 25" fill="none" xmlns="http://www.w3.org/2000/svg">
<path d="M16 3.5V11.24" stroke="#323232" stroke-width="1.5" stroke-linecap="round" stroke-linejoin="round"/>
<path d="M8 11.24V3.5" stroke="#323232" stroke-width="1.5" stroke-linecap="round" stroke-linejoin="round"/>
<path d="M11.9986 19.826L15.0066 21.407C15.5926 21.715 16.2766 21.217 16.1646 20.565L15.5896 17.216L18.0236 14.845C18.4976 14.383 18.2366 13.578 17.5816 13.483L14.2186 12.994L12.7146 9.94501C12.4216 9.35101 11.5756 9.35101 11.2826 9.94501L9.77963 12.994L6.41663 13.483C5.76163 13.578 5.50063 14.383 5.97463 14.845L8.40863 17.216L7.83363 20.565C7.72163 21.217 8.40563 21.714 8.99163 21.407L11.9996 19.826" stroke="#323232" stroke-width="1.5" stroke-linecap="round" stroke-linejoin="round"/>
<path d="M10.062 12.422L6.005 10.096C5.384 9.74 5 9.078 5 8.361V5.5C5 4.395 5.895 3.5 7 3.5H17C18.105 3.5 19 4.395 19 5.5V8.361C19 9.078 18.617 9.74 17.995 10.096L13.938 12.422" stroke="#323232" stroke-width="1.5" stroke-linecap="round" stroke-linejoin="round"/>
</svg>
