<svg width="50" height="50" viewBox="0 0 50 50" fill="none" xmlns="http://www.w3.org/2000/svg">
<circle cx="25" cy="25" r="25" fill="#45A6FF" fill-opacity="0.2"/>
<path d="M21.25 18.75C21.25 17.7554 21.6451 16.8016 22.3483 16.0983C23.0516 15.3951 24.0054 15 25 15C25.9946 15 26.9484 15.3951 27.6517 16.0983C28.3549 16.8016 28.75 17.7554 28.75 18.75V25C28.75 25.9946 28.3549 26.9484 27.6517 27.6517C26.9484 28.3549 25.9946 28.75 25 28.75C24.0054 28.75 23.0516 28.3549 22.3483 27.6517C21.6451 26.9484 21.25 25.9946 21.25 25V18.75Z" fill="#45A6FF"/>
<path d="M19.375 23.125C19.5408 23.125 19.6997 23.1908 19.8169 23.3081C19.9342 23.4253 20 23.5842 20 23.75V25C20 26.3261 20.5268 27.5979 21.4645 28.5355C22.4021 29.4732 23.6739 30 25 30C26.3261 30 27.5979 29.4732 28.5355 28.5355C29.4732 27.5979 30 26.3261 30 25V23.75C30 23.5842 30.0658 23.4253 30.1831 23.3081C30.3003 23.1908 30.4592 23.125 30.625 23.125C30.7908 23.125 30.9497 23.1908 31.0669 23.3081C31.1842 23.4253 31.25 23.5842 31.25 23.75V25C31.25 26.5494 30.6745 28.0436 29.6352 29.1927C28.5958 30.3418 27.1666 31.0638 25.625 31.2188V33.75H29.375C29.5408 33.75 29.6997 33.8158 29.8169 33.9331C29.9342 34.0503 30 34.2092 30 34.375C30 34.5408 29.9342 34.6997 29.8169 34.8169C29.6997 34.9342 29.5408 35 29.375 35H20.625C20.4592 35 20.3003 34.9342 20.1831 34.8169C20.0658 34.6997 20 34.5408 20 34.375C20 34.2092 20.0658 34.0503 20.1831 33.9331C20.3003 33.8158 20.4592 33.75 20.625 33.75H24.375V31.2188C22.8334 31.0638 21.4042 30.3418 20.3648 29.1927C19.3255 28.0436 18.75 26.5494 18.75 25V23.75C18.75 23.5842 18.8158 23.4253 18.9331 23.3081C19.0503 23.1908 19.2092 23.125 19.375 23.125Z" fill="#45A6FF"/>
</svg>
