<svg width="41" height="41" viewBox="0 0 41 41" fill="none" xmlns="http://www.w3.org/2000/svg">
<rect x="1" y="1" width="39" height="39" rx="19.5" stroke="#217DD1"/>
<g clip-path="url(#clip0_3487_10093)">
<path d="M13.75 18.25C13.9489 18.25 14.1397 18.329 14.2803 18.4697C14.421 18.6103 14.5 18.8011 14.5 19V20.5C14.5 22.0913 15.1321 23.6174 16.2574 24.7426C17.3826 25.8679 18.9087 26.5 20.5 26.5C22.0913 26.5 23.6174 25.8679 24.7426 24.7426C25.8679 23.6174 26.5 22.0913 26.5 20.5V19C26.5 18.8011 26.579 18.6103 26.7197 18.4697C26.8603 18.329 27.0511 18.25 27.25 18.25C27.4489 18.25 27.6397 18.329 27.7803 18.4697C27.921 18.6103 28 18.8011 28 19V20.5C28 22.3593 27.3094 24.1523 26.0622 25.5312C24.8149 26.9101 23.1 27.7766 21.25 27.9625V31H25.75C25.9489 31 26.1397 31.079 26.2803 31.2197C26.421 31.3603 26.5 31.5511 26.5 31.75C26.5 31.9489 26.421 32.1397 26.2803 32.2803C26.1397 32.421 25.9489 32.5 25.75 32.5H15.25C15.0511 32.5 14.8603 32.421 14.7197 32.2803C14.579 32.1397 14.5 31.9489 14.5 31.75C14.5 31.5511 14.579 31.3603 14.7197 31.2197C14.8603 31.079 15.0511 31 15.25 31H19.75V27.9625C17.9 27.7766 16.1851 26.9101 14.9378 25.5312C13.6906 24.1523 13 22.3593 13 20.5V19C13 18.8011 13.079 18.6103 13.2197 18.4697C13.3603 18.329 13.5511 18.25 13.75 18.25Z" fill="#217DD1"/>
<path d="M23.5 20.5C23.5 21.2956 23.1839 22.0587 22.6213 22.6213C22.0587 23.1839 21.2956 23.5 20.5 23.5C19.7044 23.5 18.9413 23.1839 18.3787 22.6213C17.8161 22.0587 17.5 21.2956 17.5 20.5V13C17.5 12.2044 17.8161 11.4413 18.3787 10.8787C18.9413 10.3161 19.7044 10 20.5 10C21.2956 10 22.0587 10.3161 22.6213 10.8787C23.1839 11.4413 23.5 12.2044 23.5 13V20.5ZM20.5 8.5C19.3065 8.5 18.1619 8.97411 17.318 9.81802C16.4741 10.6619 16 11.8065 16 13V20.5C16 21.6935 16.4741 22.8381 17.318 23.682C18.1619 24.5259 19.3065 25 20.5 25C21.6935 25 22.8381 24.5259 23.682 23.682C24.5259 22.8381 25 21.6935 25 20.5V13C25 11.8065 24.5259 10.6619 23.682 9.81802C22.8381 8.97411 21.6935 8.5 20.5 8.5Z" fill="#217DD1"/>
</g>
<defs>
<clipPath id="clip0_3487_10093">
<rect width="24" height="24" fill="white" transform="translate(8.5 8.5)"/>
</clipPath>
</defs>
</svg>
