<svg width="30" height="30" viewBox="0 0 30 30" fill="none" xmlns="http://www.w3.org/2000/svg">
<g id="Money">
<path id="Shape" d="M16.875 13.1255C16.875 15.1966 15.1961 16.8755 13.125 16.8755C11.0539 16.8755 9.375 15.1966 9.375 13.1255C9.375 11.0544 11.0539 9.37549 13.125 9.37549C15.1961 9.37549 16.875 11.0544 16.875 13.1255ZM15 13.1255C15 12.09 14.1605 11.2505 13.125 11.2505C12.0895 11.2505 11.25 12.09 11.25 13.1255C11.25 14.161 12.0895 15.0005 13.125 15.0005C14.1605 15.0005 15 14.161 15 13.1255ZM1.875 7.96924C1.875 6.67482 2.92433 5.62549 4.21875 5.62549H22.0312C23.3257 5.62549 24.375 6.67482 24.375 7.96924V18.2817C24.375 19.5762 23.3257 20.6255 22.0312 20.6255H4.21875C2.92433 20.6255 1.875 19.5762 1.875 18.2817V7.96924ZM4.21875 7.50049C3.95987 7.50049 3.75 7.71035 3.75 7.96924V9.37549H4.6875C5.20527 9.37549 5.625 8.95576 5.625 8.43799V7.50049H4.21875ZM3.75 18.2817C3.75 18.5406 3.95987 18.7505 4.21875 18.7505H5.625V17.813C5.625 17.2952 5.20527 16.8755 4.6875 16.8755H3.75V18.2817ZM7.5 17.813V18.7505H18.75V17.813C18.75 16.2597 20.0092 15.0005 21.5625 15.0005H22.5V11.2505H21.5625C20.0092 11.2505 18.75 9.99129 18.75 8.43799V7.50049H7.5V8.43799C7.5 9.99129 6.2408 11.2505 4.6875 11.2505H3.75V15.0005H4.6875C6.2408 15.0005 7.5 16.2597 7.5 17.813ZM20.625 18.7505H22.0312C22.2901 18.7505 22.5 18.5406 22.5 18.2817V16.8755H21.5625C21.0447 16.8755 20.625 17.2952 20.625 17.813V18.7505ZM22.5 9.37549V7.96924C22.5 7.71035 22.2901 7.50049 22.0312 7.50049H20.625V8.43799C20.625 8.95576 21.0447 9.37549 21.5625 9.37549H22.5ZM8.4375 24.3755C7.18762 24.3755 6.12817 23.5602 5.76195 22.4324C6.0221 22.4772 6.28958 22.5005 6.5625 22.5005H22.0312C24.3612 22.5005 26.25 20.6117 26.25 18.2817V9.53552C27.3424 9.92162 28.125 10.9634 28.125 12.188V18.2817C28.125 21.6472 25.3967 24.3755 22.0312 24.3755H8.4375Z" fill="#005FDF"/>
</g>
</svg>
