<svg width="708" height="304" viewBox="0 0 708 304" fill="none" xmlns="http://www.w3.org/2000/svg">
<path d="M9.74212 2.70656C73.1603 2.70656 136.639 1.85594 200.041 3.42467C274.067 5.25623 359.736 5.40438 429.119 35.5003C455.284 46.8501 465.571 68.6913 440.249 87.683C381.018 132.106 295.785 142.395 226.133 159.015C183.632 169.157 136.275 180.213 95.1973 195.639C68.36 205.717 13.776 225.1 3.39881 258.354C-11.8338 307.167 155.22 297.193 168.445 297.371C306.24 299.227 444.041 297.237 581.837 300.004C623.092 300.833 664.325 302.159 705.591 302.159" stroke="url(#paint0_linear_3250_852)" stroke-width="3" stroke-linecap="round"/>
<defs>
<linearGradient id="paint0_linear_3250_852" x1="616.508" y1="2.47631" x2="355.733" y2="503.185" gradientUnits="userSpaceOnUse">
<stop stop-color="#45A6FF"/>
<stop offset="1" stop-color="#1353BC"/>
</linearGradient>
</defs>
</svg>
