<svg width="41" height="40" viewBox="0 0 41 40" fill="none" xmlns="http://www.w3.org/2000/svg">
<path d="M18.5 23C21.2614 23 23.5 20.7614 23.5 18C23.5 15.2386 21.2614 13 18.5 13C15.7386 13 13.5 15.2386 13.5 18C13.5 20.7614 15.7386 23 18.5 23ZM6.5 12C6.5 8.68629 9.18629 6 12.5 6H28.5C31.8137 6 34.5 8.68629 34.5 12V28C34.5 31.3137 31.8137 34 28.5 34H12.5C9.18629 34 6.5 31.3137 6.5 28V12ZM18.5 25C20.0724 25 21.5237 24.4816 22.6923 23.6063L27.7929 28.707C28.1834 29.0976 28.8166 29.0976 29.2071 28.7071C29.5976 28.3165 29.5976 27.6834 29.2071 27.2928L24.1065 22.192C24.9816 21.0235 25.5 19.5723 25.5 18C25.5 14.134 22.366 11 18.5 11C14.634 11 11.5 14.134 11.5 18C11.5 21.866 14.634 25 18.5 25Z" fill="#49390D"/>
</svg>
