<svg width="24" height="25" viewBox="0 0 24 25" fill="none" xmlns="http://www.w3.org/2000/svg">
<path fill-rule="evenodd" clip-rule="evenodd" d="M17.0976 12.6236L11.6986 16.9428C11.3006 17.2613 10.7267 17.2295 10.3663 16.869L7.63091 14.1337C7.27046 13.7732 7.23868 13.1994 7.55712 12.8013L11.8763 7.4023C13.8514 4.9335 16.8416 3.49634 20.0032 3.49634V3.49634C20.5557 3.49634 21.0036 3.94424 21.0036 4.49675V4.49675C21.0036 7.65837 19.5664 10.6486 17.0976 12.6236Z" stroke="#323232" stroke-width="1.5" stroke-linecap="round" stroke-linejoin="round"/>
<path d="M16.0001 13.5005V17.8843C16.0001 18.2632 15.786 18.6096 15.4471 18.7791L13.0302 19.9876C12.7708 20.1173 12.4679 20.1281 12.1999 20.0171C11.932 19.9061 11.7254 19.6843 11.6337 19.4092L10.998 17.5022" stroke="#323232" stroke-width="1.5" stroke-linecap="round" stroke-linejoin="round"/>
<path d="M6.99726 13.5006L5.09031 12.865C4.81518 12.7733 4.59339 12.5667 4.4824 12.2987C4.37142 12.0308 4.38217 11.7279 4.51186 11.4685L5.72037 9.05156C5.88982 8.71265 6.23619 8.49854 6.6151 8.49854H10.9989" stroke="#323232" stroke-width="1.5" stroke-linecap="round" stroke-linejoin="round"/>
<path fill-rule="evenodd" clip-rule="evenodd" d="M5.74734 21.0907L2.99609 21.504L3.40942 18.7527C3.5435 17.8602 4.24412 17.1596 5.13663 17.0255V17.0255C5.78157 16.9286 6.43424 17.1435 6.89541 17.6047C7.35658 18.0659 7.57151 18.7185 7.4746 19.3635V19.3635C7.34049 20.256 6.63985 20.9566 5.74734 21.0907V21.0907Z" stroke="#323232" stroke-width="1.5" stroke-linecap="round" stroke-linejoin="round"/>
</svg>
