<svg width="40" height="40" viewBox="0 0 40 40" fill="none" xmlns="http://www.w3.org/2000/svg">
<path d="M20 4C15.5817 4 12 7.58172 12 12C12 16.4183 15.5817 20 20 20C24.4183 20 28 16.4183 28 12C28 7.58172 24.4183 4 20 4ZM10.0175 22C7.8063 22 6 23.7737 6 26C6 29.3824 7.66562 31.9326 10.27 33.5932C12.3691 34.9316 15.0666 35.6918 18.0114 35.9234C18.0286 35.72 18.0624 35.514 18.1143 35.3065L18.8633 32.3107C19.1443 31.1864 19.7257 30.1596 20.5452 29.3402L27.8853 22L10.0175 22ZM21.9595 30.7544L31.6184 21.0955C33.0791 19.6348 35.4473 19.6348 36.908 21.0955C38.3687 22.5562 38.3687 24.9245 36.908 26.3852L27.2491 36.044C26.686 36.6072 25.9804 37.0067 25.2077 37.1998L22.2119 37.9488C20.9091 38.2745 19.729 37.0944 20.0547 35.7916L20.8037 32.7958C20.9968 32.0231 21.3964 31.3175 21.9595 30.7544Z" fill="#49390D"/>
</svg>
