<svg xmlns="http://www.w3.org/2000/svg" width="41" height="40" viewBox="0 0 41 40" fill="none">
  <path d="M10.5 6C8.29086 6 6.5 7.79086 6.5 10V30C6.5 32.2091 8.29086 34 10.5 34H20.8946C20.4241 32.4805 20.22 30.608 21.0999 29.2C21.3686 28.7298 21.7276 28.3273 22.1464 28H19.5C18.9477 28 18.5 27.5523 18.5 27C18.5 26.4477 18.9477 26 19.5 26H25.3149C24.7945 25.1441 24.4999 24.1211 24.4999 23C24.4999 22.658 24.5263 22.324 24.5771 22H19.5C18.9477 22 18.5 21.5523 18.5 21C18.5 20.4477 18.9477 20 19.5 20H25.2622C26.2747 18.1845 28.2051 17 30.4999 17C31.4999 17 32.4999 17.2 33.4999 17.8C33.8587 17.9993 34.1937 18.2384 34.5 18.5108V10C34.5 7.79086 32.7091 6 30.5 6H10.5ZM15.5 14.5C15.5 15.3284 14.8284 16 14 16C13.1716 16 12.5 15.3284 12.5 14.5C12.5 13.6716 13.1716 13 14 13C14.8284 13 15.5 13.6716 15.5 14.5ZM14 22C13.1716 22 12.5 21.3284 12.5 20.5C12.5 19.6716 13.1716 19 14 19C14.8284 19 15.5 19.6716 15.5 20.5C15.5 21.3284 14.8284 22 14 22ZM15.5 26.5C15.5 27.3284 14.8284 28 14 28C13.1716 28 12.5 27.3284 12.5 26.5C12.5 25.6716 13.1716 25 14 25C14.8284 25 15.5 25.6716 15.5 26.5ZM19.5 14H27.5C28.0523 14 28.5 14.4477 28.5 15C28.5 15.5523 28.0523 16 27.5 16H19.5C18.9477 16 18.5 15.5523 18.5 15C18.5 14.4477 18.9477 14 19.5 14ZM32.5 19.5351C31.9117 19.1948 31.2286 19 30.5 19C28.2909 19 26.5 20.7909 26.5 23C26.5 25.2091 28.2909 27 30.5 27C31.2286 27 31.9117 26.8052 32.5 26.4649C33.6956 25.7733 34.5 24.4806 34.5 23C34.5 21.5194 33.6956 20.2267 32.5 19.5351ZM22.5 31.5C22.5 30.1193 23.6193 29 25 29H36C37.3807 29 38.5 30.1193 38.5 31.5C38.5 31.5585 38.5006 31.6171 38.5011 31.6758C38.5025 31.8181 38.5038 31.9608 38.4972 32.1028C38.4947 32.1559 38.4901 32.2273 38.4814 32.3143C38.464 32.4882 38.4302 32.7266 38.3645 33.0085C38.2334 33.5702 37.9713 34.3205 37.4442 35.0735C36.3525 36.6331 34.271 38 30.5 38C27.2776 38 25.2889 37.0019 24.0972 35.7382C23.8943 35.5231 23.7146 35.3003 23.5558 35.0735C23.2684 34.663 23.0598 34.2533 22.9083 33.8744C22.7819 33.5584 22.6951 33.2639 22.6355 33.0085C22.5698 32.7266 22.536 32.4882 22.5186 32.3143C22.5099 32.2273 22.5053 32.1559 22.5028 32.1028C22.5 31.8401 22.5 31.692 22.5 31.5057V31.5Z" fill="#49390D"/>
</svg>