<svg width="109" height="423" viewBox="0 0 109 423" fill="none" xmlns="http://www.w3.org/2000/svg">
<g clip-path="url(#clip0_3503_22811)">
<path d="M108.087 196.308L21.3997 247.258H20.8741L20.987 247.852C26.5115 276.896 29.7356 309.2 30.6859 344.737V422.5H-29.9306V345.422V345.413L-29.931 345.404C-30.8532 320.463 -32.698 298.974 -35.4672 280.938L-35.5794 280.208L-36.2158 280.584C-76.8317 304.589 -117.333 328.363 -157.718 351.935C-197.855 375.334 -238.106 398.733 -278.471 422.161V344.766C-276.628 271.859 -262.438 201.632 -235.93 134.024L-235.93 134.023C-209.517 66.5877 -172.167 6.17219 -123.907 -47.2543C-93.1833 -13.2243 -67.231 22.6311 -46.1052 60.283C-24.8943 98.1153 -7.59567 139.406 5.78946 184.156L5.97202 184.767L6.52148 184.444L78.096 142.456L108.087 196.308ZM-48.9054 217.011L-48.573 216.82L-48.6714 216.449C-64.3853 157.289 -89.3263 102.742 -123.523 52.8394L-123.939 52.233L-124.35 52.8424C-150.242 91.2059 -171.03 132.569 -186.715 176.93C-202.429 221.293 -212.117 266.839 -215.807 313.51L-215.883 314.467L-215.056 313.981C-141.225 270.581 -85.8328 238.248 -48.9054 217.011Z" stroke="#45A6FF"/>
</g>
<defs>
<clipPath id="clip0_3503_22811">
<rect width="387.732" height="471" fill="white" transform="translate(-279 -48)"/>
</clipPath>
</defs>
</svg>
