<svg width="25" height="25" viewBox="0 0 25 25" fill="none" xmlns="http://www.w3.org/2000/svg">
<g id="Arrow Sort Down">
<path id="Shape" d="M12.0715 20.9145C12.3533 20.9145 12.6139 20.7845 12.7787 20.5812L16.3083 17.0464C16.6592 16.6949 16.6592 16.125 16.3083 15.7736C15.9573 15.4221 15.3883 15.4221 15.0374 15.7736L12.9715 17.8348V5.0145C12.9715 4.51744 12.5678 4.1145 12.0715 4.1145C11.5752 4.1145 11.1715 4.51744 11.1715 5.0145V17.8474L9.10561 15.7681C8.75466 15.4167 8.18565 15.4167 7.8347 15.7681C7.48375 16.1196 7.48375 16.6895 7.8347 17.0409L11.4393 20.6509C11.6159 20.8278 11.84 20.9157 12.0715 20.9145Z" fill="#000040"/>
</g>
</svg>
