<svg xmlns="http://www.w3.org/2000/svg" width="25" height="25" viewBox="0 0 25 25" fill="none">
  <path d="M12.0714 4.22853C12.3533 4.22853 12.6138 4.35848 12.7786 4.56182L16.3082 8.09667C16.6592 8.44814 16.6592 9.01799 16.3082 9.36946C15.9573 9.72093 15.3883 9.72094 15.0373 9.36946L12.9714 7.30819V20.1285C12.9714 20.6256 12.5677 21.0285 12.0714 21.0285C11.5751 21.0285 11.1714 20.6256 11.1714 20.1285V7.29559L9.10555 9.37488C8.7546 9.72636 8.18559 9.72636 7.83464 9.37488C7.48369 9.02341 7.48369 8.45356 7.83464 8.10209L11.4393 4.49212C11.6159 4.31524 11.8399 4.22737 12.0714 4.22853Z" fill="white"/>
</svg>