<svg width="22" height="24" viewBox="0 0 22 24" fill="none" xmlns="http://www.w3.org/2000/svg">
<g id="instagram logo" clip-path="url(#clip0_9067_818)">
<path id="Vector" d="M10.6714 6.61001C7.64286 6.61001 5.2 9.01469 5.2 11.9959C5.2 14.9772 7.64286 17.3819 10.6714 17.3819C13.7 17.3819 16.1429 14.9772 16.1429 11.9959C16.1429 9.01469 13.7 6.61001 10.6714 6.61001ZM10.6714 15.4975C8.71429 15.4975 7.11429 13.9272 7.11429 11.9959C7.11429 10.0647 8.70953 8.49438 10.6714 8.49438C12.6333 8.49438 14.2286 10.0647 14.2286 11.9959C14.2286 13.9272 12.6286 15.4975 10.6714 15.4975ZM17.6429 6.38969C17.6429 7.08813 17.0714 7.64594 16.3667 7.64594C15.6571 7.64594 15.0905 7.08344 15.0905 6.38969C15.0905 5.69595 15.6619 5.13345 16.3667 5.13345C17.0714 5.13345 17.6429 5.69595 17.6429 6.38969ZM21.2667 7.66469C21.1857 5.98188 20.7952 4.49126 19.5429 3.26313C18.2952 2.03501 16.7809 1.65063 15.0714 1.56626C13.3095 1.46782 8.02857 1.46782 6.26667 1.56626C4.56191 1.64595 3.04763 2.03032 1.79525 3.25845C0.542865 4.48657 0.157151 5.97719 0.071437 7.66001C-0.0285629 9.39438 -0.0285629 14.5928 0.071437 16.3272C0.152389 18.01 0.542865 19.5006 1.79525 20.7288C3.04763 21.9569 4.55715 22.3412 6.26667 22.4256C8.02857 22.5241 13.3095 22.5241 15.0714 22.4256C16.7809 22.3459 18.2952 21.9616 19.5429 20.7288C20.7905 19.5006 21.1809 18.01 21.2667 16.3272C21.3667 14.5928 21.3667 9.39907 21.2667 7.66469ZM18.9905 18.1881C18.619 19.1069 17.9 19.8147 16.9619 20.185C15.5571 20.7334 12.2238 20.6069 10.6714 20.6069C9.11905 20.6069 5.78096 20.7288 4.38096 20.185C3.44762 19.8194 2.72858 19.1116 2.35239 18.1881C1.79525 16.8053 1.92382 13.5241 1.92382 11.9959C1.92382 10.4678 1.80001 7.18188 2.35239 5.80376C2.72382 4.88501 3.44286 4.1772 4.38096 3.80688C5.78572 3.25845 9.11905 3.38501 10.6714 3.38501C12.2238 3.38501 15.5619 3.26313 16.9619 3.80688C17.8952 4.17251 18.6143 4.88032 18.9905 5.80376C19.5476 7.18657 19.419 10.4678 19.419 11.9959C19.419 13.5241 19.5476 16.81 18.9905 18.1881Z" fill="#005FDF"/>
</g>
<defs>
<clipPath id="clip0_9067_818">
<rect width="21.3333" height="24" fill="white" transform="translate(1.52588e-05 0.000732422)"/>
</clipPath>
</defs>
</svg>
