<svg width="12" height="12" viewBox="0 0 12 12" fill="none" xmlns="http://www.w3.org/2000/svg">
<path d="M0 1.61327C0 1.22846 0.135139 0.910998 0.405405 0.660886C0.675672 0.410762 1.02703 0.285706 1.45946 0.285706C1.88417 0.285706 2.2278 0.408834 2.49035 0.655114C2.76061 0.909082 2.89575 1.24 2.89575 1.6479C2.89575 2.01731 2.76448 2.32514 2.50193 2.57142C2.23166 2.82539 1.87645 2.95237 1.43629 2.95237H1.42471C0.999996 2.95237 0.656375 2.82539 0.393822 2.57142C0.13127 2.31745 0 1.99806 0 1.61327ZM0.150579 11.7143V4.00288H2.72201V11.7143H0.150579ZM4.14672 11.7143H6.71815V7.40836C6.71815 7.13899 6.74904 6.9312 6.81081 6.78498C6.91891 6.52331 7.08301 6.30205 7.30309 6.1212C7.52317 5.94034 7.79922 5.84992 8.13127 5.84992C8.99614 5.84992 9.42857 6.43096 9.42857 7.59306V11.7143H12V7.29292C12 6.15391 11.7297 5.29003 11.1892 4.70129C10.6486 4.11254 9.93437 3.81817 9.04633 3.81817C8.05019 3.81817 7.27413 4.2453 6.71815 5.09956V5.12264H6.70656L6.71815 5.09956V4.00288H4.14672C4.16216 4.24914 4.16988 5.01489 4.16988 6.30013C4.16988 7.58536 4.16216 9.39007 4.14672 11.7143Z" fill="white"/>
</svg>
