<svg width="22" height="21" viewBox="0 0 22 21" fill="none" xmlns="http://www.w3.org/2000/svg">
<g id="linkedin logo" clip-path="url(#clip0_9067_822)">
<path id="Vector" d="M4.84363 20.3342V6.84027H0.269894V20.3342H4.84363ZM2.55735 4.99679C4.1523 4.99679 5.14507 3.96061 5.14507 2.66573C5.11536 1.34165 4.15236 0.334229 2.58762 0.334229C1.02313 0.334229 4.57764e-05 1.34167 4.57764e-05 2.66573C4.57764e-05 3.96067 0.992576 4.99679 2.5275 4.99679H2.55721H2.55735ZM7.37518 20.3342H11.9489V12.7985C11.9489 12.3952 11.9786 11.9924 12.0994 11.7041C12.4301 10.8983 13.1826 10.0637 14.4461 10.0637C16.1011 10.0637 16.7632 11.3012 16.7632 13.1152V20.3341H21.3367V12.5968C21.3367 8.45201 19.0802 6.52347 16.071 6.52347C13.6037 6.52347 12.5203 7.87591 11.9185 8.79705H11.949V6.83999H7.37528C7.4353 8.10619 7.37528 20.334 7.37528 20.334L7.37518 20.3342Z" fill="#005FDF"/>
</g>
<defs>
<clipPath id="clip0_9067_822">
<rect width="21.3333" height="20" fill="white" transform="translate(0 0.333984)"/>
</clipPath>
</defs>
</svg>
