<svg width="12" height="12" viewBox="0 0 12 12" fill="none" xmlns="http://www.w3.org/2000/svg">
<g clip-path="url(#clip0_3473_7637)">
<path d="M6.75 0H8.235C8.343 0.53625 8.64 1.21275 9.16125 1.884C9.67125 2.54175 10.3478 3 11.25 3V4.5C9.93525 4.5 8.9475 3.8895 8.25 3.12825V8.25C8.25 8.99168 8.03007 9.7167 7.61801 10.3334C7.20596 10.9501 6.62029 11.4307 5.93507 11.7145C5.24984 11.9984 4.49584 12.0726 3.76841 11.9279C3.04098 11.7833 2.3728 11.4261 1.84835 10.9017C1.3239 10.3772 0.966751 9.70902 0.822057 8.98159C0.677362 8.25416 0.751625 7.50016 1.03545 6.81494C1.31928 6.12971 1.79993 5.54404 2.41661 5.13199C3.0333 4.71993 3.75832 4.5 4.5 4.5V6C4.05499 6 3.61998 6.13196 3.24997 6.37919C2.87996 6.62643 2.59157 6.97783 2.42127 7.38896C2.25098 7.8001 2.20642 8.2525 2.29323 8.68895C2.38005 9.12541 2.59434 9.52632 2.90901 9.84099C3.22368 10.1557 3.62459 10.37 4.06105 10.4568C4.49751 10.5436 4.94991 10.499 5.36104 10.3287C5.77217 10.1584 6.12358 9.87004 6.37081 9.50003C6.61804 9.13002 6.75 8.69501 6.75 8.25V0Z" fill="#FCFCFC"/>
</g>
<defs>
<clipPath id="clip0_3473_7637">
<rect width="12" height="12" fill="white"/>
</clipPath>
</defs>
</svg>
