<svg width="12" height="10" viewBox="0 0 12 10" fill="none" xmlns="http://www.w3.org/2000/svg">
<path d="M8.01803 0.134241V0.13208H8.5807L8.78629 0.173141C8.92336 0.199799 9.04779 0.234733 9.1596 0.277956C9.27142 0.321178 9.37963 0.371608 9.48422 0.429234C9.58882 0.486861 9.68369 0.545578 9.76881 0.605366C9.85321 0.66444 9.92896 0.727112 9.99604 0.793383C10.0624 0.860378 10.1659 0.877667 10.3066 0.84525C10.4473 0.812833 10.5987 0.767806 10.761 0.71018C10.9234 0.652554 11.0839 0.58772 11.2426 0.515679C11.4013 0.443638 11.4979 0.397898 11.5326 0.378448C11.5665 0.358285 11.5845 0.347479 11.5867 0.346031L11.5888 0.342789L11.5996 0.337387L11.6105 0.331984L11.6213 0.326581L11.6321 0.321178L11.6343 0.317936L11.6375 0.315775L11.6408 0.313614L11.6429 0.310373L11.6537 0.307131L11.6646 0.30497L11.6624 0.321178L11.6592 0.337387L11.6537 0.353595L11.6483 0.369803L11.6429 0.380609L11.6375 0.391415L11.6321 0.407623C11.6285 0.418429 11.6249 0.432832 11.6213 0.450845C11.6177 0.468858 11.5834 0.540889 11.5185 0.666957C11.4536 0.793027 11.3724 0.920889 11.275 1.05056C11.1776 1.18022 11.0904 1.27819 11.0132 1.34447C10.9353 1.41146 10.8837 1.45828 10.8584 1.48494C10.8332 1.51231 10.8025 1.53752 10.7665 1.56058L10.7124 1.59624L10.7015 1.60164L10.6907 1.60705L10.6886 1.61029L10.6853 1.61245L10.6821 1.61461L10.6799 1.61785L10.6691 1.62325L10.6583 1.62866L10.6561 1.6319L10.6528 1.63406L10.6496 1.63622L10.6474 1.63946L10.6453 1.6427L10.642 1.64486L10.6388 1.64703L10.6366 1.65027H10.6907L10.9937 1.58543C11.1957 1.54221 11.3886 1.48999 11.5726 1.42875L11.8647 1.3315L11.8972 1.3207L11.9134 1.31529L11.9243 1.30989L11.9351 1.30449L11.9459 1.29909L11.9567 1.29368L11.9784 1.29044L12 1.28828V1.30989L11.9946 1.31205L11.9892 1.31529L11.987 1.31854L11.9838 1.3207L11.9805 1.32286L11.9784 1.3261L11.9762 1.32934L11.9729 1.3315L11.9697 1.33366L11.9675 1.33691L11.9654 1.34015L11.9621 1.34231L11.9567 1.35311L11.9513 1.36392L11.9481 1.36608C11.9466 1.36824 11.9008 1.42947 11.8106 1.54978C11.7205 1.6708 11.6718 1.73202 11.6646 1.73347C11.6574 1.73563 11.6472 1.74644 11.6343 1.76589C11.622 1.78605 11.5455 1.86638 11.4049 2.00685C11.2642 2.14733 11.1264 2.2723 10.9915 2.38181C10.8559 2.49202 10.7874 2.62745 10.7859 2.7881C10.7838 2.94802 10.7755 3.12884 10.761 3.33054C10.7466 3.53225 10.7196 3.75015 10.6799 3.98428C10.6402 4.2184 10.5789 4.48314 10.4959 4.77849C10.413 5.07384 10.312 5.36199 10.193 5.64294C10.0739 5.92388 9.9495 6.17601 9.81966 6.39933C9.68981 6.62265 9.57078 6.81175 9.46258 6.96663C9.35437 7.1215 9.24437 7.26738 9.13255 7.40425C9.02074 7.54113 8.87936 7.69529 8.7084 7.86673C8.53671 8.03746 8.44294 8.13111 8.42706 8.14768C8.41047 8.16353 8.33978 8.2226 8.21497 8.32489C8.0909 8.4279 7.95744 8.53091 7.81461 8.63393C7.6725 8.73623 7.54193 8.82159 7.4229 8.89002C7.30388 8.95846 7.16033 9.03661 6.99225 9.12451C6.82489 9.21311 6.64382 9.29523 6.44905 9.37087C6.25428 9.44651 6.04869 9.51675 5.83228 9.58158C5.61587 9.64642 5.40668 9.69685 5.20469 9.73286C5.00271 9.76888 4.77367 9.7995 4.51758 9.82471L4.13345 9.86253V9.86793H3.43012V9.86253L3.33814 9.85712C3.27683 9.85353 3.22633 9.84992 3.18665 9.84632C3.14699 9.84272 2.99729 9.8229 2.7376 9.78689C2.47791 9.75087 2.27412 9.71485 2.12624 9.67883C1.97837 9.64282 1.75834 9.57437 1.46619 9.47353C1.17403 9.37268 0.924076 9.27074 0.716321 9.16773C0.509291 9.06543 0.379445 9.0006 0.326781 8.97323C0.274842 8.94657 0.216411 8.91344 0.151488 8.87381L0.0541028 8.81438L0.0519495 8.81114L0.0486925 8.80898L0.0454463 8.80682L0.0432822 8.80358L0.0324617 8.79817L0.0216411 8.79277L0.0194878 8.78953L0.0162308 8.78737L0.0129847 8.78521L0.0108206 8.78197L0.00866727 8.77873L0.00541028 8.77656H0V8.75495L0.0108206 8.75711L0.0216411 8.76036L0.0703336 8.76576C0.102795 8.76936 0.191167 8.77476 0.335437 8.78197C0.479719 8.78917 0.633003 8.78917 0.795311 8.78197C0.957619 8.77476 1.12354 8.75855 1.29306 8.73334C1.46258 8.70813 1.66276 8.66491 1.8936 8.60367C2.12444 8.54244 2.33653 8.46968 2.52986 8.3854C2.72246 8.3004 2.85952 8.23701 2.94104 8.19522C3.02183 8.15416 3.14518 8.0778 3.31109 7.96614L3.55996 7.79866L3.56213 7.79542L3.56537 7.79325L3.56863 7.79109L3.57078 7.78785L3.57295 7.78461L3.57619 7.78245L3.57945 7.78029L3.58161 7.77705L3.59243 7.7738L3.60325 7.77164L3.60541 7.76084L3.60866 7.75003L3.61191 7.74787L3.61407 7.74463L3.5275 7.73923C3.4698 7.73563 3.41389 7.73202 3.35978 7.72842C3.30568 7.72482 3.22092 7.70861 3.1055 7.6798C2.99009 7.65098 2.86565 7.60775 2.73219 7.55013C2.59874 7.4925 2.46889 7.42406 2.34265 7.34482C2.21642 7.26558 2.12516 7.19966 2.06889 7.14708C2.01335 7.0952 1.94121 7.02173 1.85248 6.92664C1.76448 6.83084 1.68801 6.7325 1.62308 6.63165C1.55816 6.5308 1.49613 6.41445 1.43698 6.28263L1.34716 6.08597L1.34175 6.06976L1.33634 6.05355L1.33309 6.04275L1.33093 6.03194L1.34716 6.0341L1.36339 6.03734L1.48242 6.05355C1.56177 6.06436 1.68621 6.06796 1.85573 6.06436C2.02525 6.06076 2.14247 6.05355 2.20739 6.04275C2.27232 6.03194 2.312 6.02473 2.32642 6.02113L2.34806 6.01573L2.37511 6.01033L2.40216 6.00493L2.40433 6.00168L2.40757 5.99952L2.41083 5.99736L2.41298 5.99412L2.39134 5.98872L2.3697 5.98331L2.34806 5.97791L2.32642 5.97251L2.30478 5.96711C2.29036 5.96351 2.26511 5.9563 2.22904 5.9455C2.19297 5.93469 2.09559 5.89507 1.93688 5.82663C1.77819 5.7582 1.65194 5.69156 1.55816 5.62673C1.46415 5.56171 1.3745 5.4906 1.28981 5.41386C1.20541 5.33606 1.11272 5.23592 1.01172 5.11346C0.910734 4.991 0.820566 4.84873 0.741208 4.68664C0.661861 4.52456 0.602348 4.36968 0.562669 4.222C0.52315 4.07519 0.497077 3.92509 0.484772 3.77357L0.465284 3.54665L0.476105 3.54881L0.486925 3.55205L0.497746 3.55746L0.508566 3.56286L0.519387 3.56826L0.530207 3.57367L0.697926 3.6493C0.809746 3.69973 0.948606 3.74296 1.11452 3.77897C1.28044 3.81499 1.37962 3.8348 1.41208 3.8384L1.46078 3.84381H1.55816L1.55601 3.84056L1.55275 3.8384L1.5495 3.83624L1.54734 3.833L1.54519 3.82976L1.54193 3.8276L1.53868 3.82544L1.53652 3.82219L1.5257 3.81679L1.51488 3.81139L1.51272 3.80815L1.50947 3.80599L1.50622 3.80382L1.50406 3.80058L1.49324 3.79518L1.48242 3.78978L1.48026 3.78654C1.4781 3.78509 1.44708 3.76204 1.3872 3.71738C1.32804 3.672 1.26601 3.61329 1.20108 3.54125C1.13616 3.46921 1.07124 3.39357 1.00631 3.31433C0.941269 3.23491 0.883337 3.14994 0.833183 3.0604C0.782694 2.97036 0.729306 2.85581 0.673039 2.71678C0.617497 2.57847 0.575297 2.43908 0.546438 2.2986C0.517591 2.15813 0.50136 2.01946 0.497746 1.88259C0.494142 1.74571 0.497746 1.62866 0.508566 1.53141C0.519387 1.43416 0.541028 1.32429 0.57349 1.20183C0.605951 1.07938 0.652848 0.949708 0.714157 0.812833L0.806132 0.607527L0.811542 0.591318L0.816952 0.57511L0.820209 0.572949L0.822362 0.569707L0.824527 0.566465L0.827773 0.564304L0.83103 0.566465L0.833183 0.569707L0.835347 0.572949L0.838593 0.57511L0.84185 0.577271L0.844004 0.580513L0.846168 0.583754L0.849414 0.585915L0.854824 0.596721L0.860234 0.607527L0.863491 0.609688L0.865645 0.612929L1.01172 0.775014C1.10911 0.88307 1.22453 1.00374 1.35798 1.137C1.49144 1.27027 1.56538 1.33942 1.5798 1.34447C1.59424 1.35023 1.61226 1.36679 1.6339 1.39417C1.65555 1.42083 1.72769 1.48459 1.85032 1.58543C1.97296 1.68628 2.13346 1.80335 2.33183 1.93662C2.53021 2.06988 2.75023 2.20135 2.99188 2.33102C3.23355 2.46069 3.49324 2.57774 3.77096 2.6822C4.0487 2.78666 4.24347 2.85509 4.35528 2.88751C4.46709 2.91993 4.65825 2.96134 4.92876 3.01177C5.19928 3.0622 5.40307 3.09462 5.54013 3.10902C5.67719 3.12343 5.77097 3.13172 5.82146 3.13388L5.8972 3.13604L5.89505 3.11983L5.89179 3.10362L5.87015 2.96855C5.85573 2.87851 5.84851 2.75244 5.84851 2.59036C5.84851 2.42827 5.86114 2.2788 5.88638 2.14192C5.91164 2.00505 5.94951 1.86638 6 1.72591C6.0505 1.58543 6.09992 1.47269 6.14824 1.38769C6.1973 1.30341 6.2615 1.20724 6.34085 1.09918C6.42021 0.991126 6.523 0.879471 6.64923 0.764208C6.77548 0.648945 6.91975 0.546291 7.08206 0.456248C7.24436 0.366205 7.39406 0.297762 7.53111 0.250942C7.66817 0.204121 7.7836 0.173498 7.87737 0.159094C7.97115 0.14469 8.01803 0.136402 8.01803 0.134241Z" fill="white"/>
</svg>
