<svg xmlns="http://www.w3.org/2000/svg" width="25" height="20" viewBox="0 0 25 20" fill="none">
  <g clip-path="url(#clip0_9067_826)">
    <path d="M24.3332 2.94035C23.4345 3.31965 22.4812 3.56862 21.5051 3.67898C22.5218 3.09844 23.3025 2.17913 23.6701 1.08378C22.7036 1.63019 21.6461 2.01517 20.5434 2.22209C19.6452 1.31046 18.3656 0.740723 16.9493 0.740723C14.23 0.740723 12.0253 2.84103 12.0253 5.4315C12.0253 5.79921 12.0689 6.15718 12.1528 6.50059C8.06061 6.3049 4.43249 4.43744 2.00389 1.59939C1.58014 2.2922 1.33733 3.09808 1.33733 3.95764C1.33733 5.58512 2.20668 7.02085 3.5278 7.8621C2.74588 7.83877 1.98116 7.63757 1.29749 7.2753C1.29721 7.29495 1.29721 7.3146 1.29721 7.33434C1.29721 9.60712 2.99446 11.5031 5.24689 11.934C4.52182 12.1219 3.76127 12.1494 3.02333 12.0144C3.64986 13.878 5.46833 15.2342 7.62289 15.2721C5.93774 16.5302 3.81458 17.2802 1.50777 17.2802C1.11027 17.2802 0.718394 17.2579 0.333176 17.2146C2.51221 18.5456 5.10036 19.3222 7.88099 19.3222C16.9379 19.3222 21.8904 12.1743 21.8904 5.97551C21.8904 5.77206 21.8857 5.56976 21.8762 5.36863C22.8401 4.70474 23.6722 3.88245 24.3332 2.94035Z" fill="#ECF1FF"/>
  </g>
  <defs>
    <clipPath id="clip0_9067_826">
      <rect width="24" height="18.6667" fill="white" transform="translate(0.333176 0.667236)"/>
    </clipPath>
  </defs>
</svg>